{"glyphs":{"0":{"ha":566,"x_min":-41,"x_max":560,"o":"m 203 1296 q 237 1151 237 1169 q 144 966 197 966 l 117 986 q 18 1131 18 1004 l 5 1131 q -1 1032 -1 1065 l -1 1019 q 65 880 -1 951 q -1 755 17 755 q -28 794 -28 788 l -41 788 q 25 557 -7 725 q 18 530 18 545 l 18 491 q 58 398 58 425 l 58 345 q 32 299 58 311 l 39 286 q 124 313 103 313 q 170 233 170 271 l 170 227 q 164 127 170 194 q 184 121 177 121 q 164 -11 184 113 l 164 -31 q 329 -288 164 -216 l 336 -288 q 230 -71 230 -158 q 243 -37 243 -49 q 302 141 302 50 l 309 141 l 375 95 l 389 95 l 401 101 l 395 115 l 395 141 l 421 187 q 534 22 534 134 l 547 22 l 553 88 q 527 200 553 149 q 467 299 467 281 l 467 385 q 560 543 467 489 l 560 564 q 454 755 454 614 l 454 762 q 513 900 454 806 q 355 1019 421 926 q 210 1296 230 1296 l 203 1296 m 237 946 l 243 946 q 322 774 284 794 q 302 689 322 735 q 362 550 337 550 q 336 497 345 497 q 290 590 322 497 q 216 861 243 861 l 216 880 l 237 946 m 138 781 l 144 781 q 170 728 161 730 q 203 537 170 680 l 216 537 l 216 557 l 223 590 l 230 590 l 230 570 q 315 313 291 313 l 315 326 l 322 326 l 322 319 q 309 279 309 298 q 223 372 298 279 q 177 511 192 511 l 164 504 q 138 524 164 511 q 164 564 164 557 q 131 642 146 642 l 138 675 l 138 781 m 322 471 l 336 477 l 336 451 l 329 451 q 322 471 329 458 "},"1":{"ha":564,"x_min":-52,"x_max":503,"o":"m 225 1286 l 225 1270 q 294 1201 294 1240 q 287 1178 287 1185 l 271 1178 l 271 1208 l 264 1208 q 241 1162 246 1208 l 241 1132 l 248 1040 q 63 878 100 878 l 40 878 q -52 893 1 878 l -52 885 q 48 816 -8 827 q 233 885 131 816 l 233 870 q 217 770 233 804 l 225 701 q 217 585 225 662 q 225 577 225 585 q 248 585 233 577 l 256 585 l 233 423 l 233 408 q 294 377 294 396 l 294 354 q 140 161 140 219 l 140 84 q 156 22 156 31 l 171 22 l 163 61 q 233 169 163 111 l 310 100 l 294 22 q 302 -155 294 -12 l 302 -162 q 217 -324 296 -243 l 217 -332 l 233 -332 q 425 -139 425 -249 q 395 15 395 -20 l 395 38 l 410 92 q 387 154 410 115 q 395 238 395 221 q 456 215 433 215 l 479 215 l 494 223 q 448 315 448 290 q 503 423 448 393 q 433 570 433 487 q 379 716 379 691 l 379 777 q 487 1031 379 897 q 479 1040 479 1031 l 464 1031 l 418 1031 q 349 1155 349 1095 q 356 1162 356 1155 l 356 1208 q 349 1217 356 1217 q 256 1286 349 1263 l 225 1286 "},"2":{"ha":1085,"x_min":68,"x_max":1234,"o":"m 906 1286 q 837 1261 871 1286 q 500 958 680 1261 l 500 941 l 526 907 l 517 863 q 621 794 572 794 l 656 794 l 673 803 q 647 881 647 836 l 647 907 l 656 949 l 664 949 q 673 907 664 922 q 802 1019 738 1019 l 854 1019 q 871 993 854 993 l 863 932 q 733 768 733 788 l 716 768 l 725 786 l 725 803 q 543 562 604 626 q 414 389 496 389 l 388 389 l 388 380 q 431 345 388 369 l 422 328 q 68 18 68 151 l 68 -26 l 77 -43 q 103 0 96 -43 q 328 138 161 138 l 388 138 l 439 130 q 664 -95 664 -13 l 673 -95 q 733 86 725 -71 q 992 268 733 153 q 1113 389 1068 268 q 1036 371 1089 389 l 1027 371 l 1027 397 q 1122 604 1122 505 l 1122 734 l 1105 734 q 984 475 1105 615 l 690 345 q 768 527 768 481 l 760 544 l 725 518 q 906 777 725 555 q 1234 1140 1234 954 l 1234 1166 q 1208 1261 1234 1261 l 1200 1261 q 1079 1105 1200 1140 l 1010 1148 q 906 1286 941 1194 m 587 294 l 630 294 l 630 276 q 587 250 614 276 l 569 250 l 569 259 q 587 294 587 281 "},"3":{"ha":1052,"x_min":-37,"x_max":1091,"o":"m -37 1270 l -37 1261 q 51 1069 51 1185 q 11 869 37 967 l 11 838 l 19 798 l 35 798 q 171 998 89 998 q 267 933 213 998 l 283 933 q 315 965 315 954 q 435 958 395 958 l 451 958 l 467 965 l 467 949 q 355 893 395 907 q 323 829 339 829 q 83 637 263 759 l 83 629 l 146 629 l 195 637 q 411 718 335 718 q 587 789 465 789 l 587 758 q 619 677 597 677 l 627 677 q 651 749 627 719 q 715 741 659 749 q 811 789 747 741 q 803 765 811 781 q 699 669 699 685 q 571 533 571 573 q 507 557 541 533 l 499 557 q 315 437 499 507 q 419 645 315 469 q 267 541 397 645 q 83 301 167 365 q 146 245 101 271 q 267 -83 267 175 l 259 -132 l 267 -132 q 339 93 295 -132 q 331 253 339 115 q 491 373 391 339 q 667 341 619 365 q 683 357 683 341 q 883 605 683 511 q 963 581 923 605 l 979 589 q 963 701 979 605 q 1091 1126 963 807 l 1091 1133 l 1084 1133 q 1027 1038 1078 1133 q 803 901 931 929 l 779 901 q 723 925 753 901 l 715 925 q 683 861 715 873 q 579 885 665 861 l 579 893 q 803 1118 655 903 l 803 1181 l 787 1181 q 619 1038 787 1112 l 555 1038 q 467 1086 527 1038 l 451 1086 q 427 1045 437 1086 q 186 1181 345 1045 l 179 1181 l 179 1109 l 155 1109 q -29 1270 28 1270 l -37 1270 "},"4":{"ha":821,"x_min":-15,"x_max":783,"o":"m 600 1290 l 588 1284 q 635 1183 635 1208 l 635 1177 q 494 911 635 1071 l 488 911 l 488 929 l 494 941 q 488 947 488 941 l 452 918 q 340 775 406 820 q 239 699 258 741 q 151 651 151 657 q -15 450 115 538 l -15 444 l 3 444 q 192 503 180 487 q 298 551 222 538 l 304 551 l 304 521 q 316 474 316 479 l 328 474 q 363 545 328 509 l 405 538 l 446 538 l 488 581 q 452 497 488 534 q 192 344 278 344 l 204 397 q 198 403 198 397 q 20 190 106 315 l 20 142 q 38 42 20 119 q 109 -159 38 -121 l 115 -159 q 85 -23 85 -83 q 98 54 89 54 q 239 225 98 181 q 376 184 312 225 l 381 184 q 446 338 402 294 q 630 438 477 395 q 606 515 606 493 l 606 521 q 659 633 606 564 q 772 829 752 719 l 772 835 q 653 740 702 758 l 642 740 q 659 852 652 770 q 724 1036 724 987 l 718 1036 l 694 1018 l 683 1018 q 677 1036 683 1024 l 701 1136 l 701 1154 q 600 1290 701 1238 m 565 888 l 570 888 l 570 852 q 565 811 570 811 q 435 633 565 700 l 316 651 q 304 640 316 640 l 304 645 q 435 758 401 725 l 440 758 q 435 751 440 751 q 452 710 439 710 l 470 710 l 470 722 q 481 775 470 737 q 565 888 565 848 m 772 852 l 772 835 q 783 846 783 835 l 783 852 l 772 852 "},"5":{"ha":838,"x_min":-29,"x_max":856,"o":"m 250 1282 q 237 1207 250 1278 q 318 1017 318 1037 q 284 901 318 979 q 80 655 184 819 l 80 642 q 87 635 80 635 q 114 547 95 547 l 127 547 q 155 560 144 560 q 271 663 245 661 q 345 601 313 608 q 352 608 345 608 l 338 642 q 461 764 374 642 q 427 683 427 696 q 509 642 448 683 q 434 553 439 553 q 366 458 388 458 q 195 329 238 416 q 168 254 178 254 l 134 254 q 114 274 114 264 l 114 302 q 182 486 114 353 l 182 492 q 73 383 161 492 q -29 117 -2 157 q -22 97 -29 111 q 39 111 -10 104 l 45 111 q 155 56 47 94 q 284 -141 284 -52 q 277 -148 277 -141 l 291 -148 q 311 -12 311 -68 q 237 138 279 138 l 237 145 q 284 227 284 196 l 291 227 q 311 179 311 223 l 318 179 q 352 233 352 210 q 481 383 352 310 l 556 383 l 570 390 l 556 417 q 563 499 556 429 l 659 635 q 591 825 591 696 q 625 1002 625 981 l 618 1030 l 604 1030 l 604 1023 q 454 840 553 924 q 359 785 359 832 q 250 730 359 763 l 243 730 q 434 1009 316 804 q 638 1105 618 1082 q 672 1091 650 1105 q 733 1105 709 1091 q 795 996 785 1105 l 788 948 l 802 948 q 856 1105 856 979 l 856 1118 q 788 1282 856 1171 q 645 1173 708 1190 q 536 1194 583 1194 l 515 1194 q 406 1152 490 1194 l 379 1152 q 264 1282 302 1152 l 250 1282 "},"6":{"ha":975,"x_min":-30,"x_max":987,"o":"m 914 1293 q 787 1193 859 1226 l 773 1193 q 693 1213 757 1193 l 686 1213 q 553 1160 660 1193 l 546 1173 l 553 1206 l 526 1186 q 458 1059 489 1069 q 392 899 458 964 q 245 704 275 786 q 71 570 82 589 q 10 437 24 446 q 3 496 3 473 q -30 430 -30 463 q 31 242 -30 389 q 17 229 31 229 l 3 229 q -9 256 -9 229 l -16 256 q -30 242 -28 256 l -30 235 q 91 122 59 122 l 178 149 q 292 95 184 134 q 418 -106 418 -9 l 432 -106 q 446 35 446 -20 q 378 176 446 103 l 378 189 q 425 262 420 232 q 446 216 446 262 l 452 216 l 486 249 q 619 416 486 348 l 686 410 l 700 416 q 686 463 700 430 q 693 510 693 471 q 787 657 693 532 l 787 664 q 726 811 726 724 l 726 818 q 753 1032 726 854 l 753 1053 l 747 1053 q 566 858 625 868 q 492 804 492 858 q 392 758 492 786 l 378 758 l 378 764 l 392 764 l 486 892 q 566 1032 566 1014 q 773 1126 669 1064 q 814 1112 795 1112 q 867 1126 842 1112 q 927 1006 927 1087 q 907 979 914 979 l 914 965 q 987 1106 962 965 l 987 1133 q 914 1293 944 1282 m 582 779 l 593 779 l 559 715 q 628 669 628 679 q 541 559 557 591 q 437 484 541 519 q 351 362 351 421 l 351 345 l 321 345 l 310 339 l 292 362 l 292 380 q 356 536 300 453 l 351 547 q 252 484 291 484 q 241 495 242 484 l 241 518 q 269 553 260 553 l 269 524 l 275 524 q 292 553 292 524 q 339 611 292 601 q 431 692 404 692 q 484 640 463 640 l 495 646 q 489 663 495 651 l 489 669 q 582 779 546 699 "},"7":{"ha":988,"x_min":-85,"x_max":1027,"o":"m 77 1296 l 31 1257 q -16 972 -16 1211 q 100 848 -12 943 q 262 717 262 767 l 262 709 l 254 670 q 262 663 262 670 q 316 701 313 682 q 463 794 403 790 q 486 763 471 794 l 525 786 q 548 771 525 779 q 680 786 631 786 l 687 786 l 664 747 q 517 647 557 699 q 339 492 393 492 l 339 485 q 378 462 339 467 l 378 446 q 316 292 378 387 q 208 261 208 273 q 224 245 208 245 l 216 230 q -85 -56 -85 54 l -85 -87 q -39 -195 -85 -146 l -39 -102 q -1 -33 -1 -56 q 247 130 136 130 l 286 130 q 339 68 339 130 q 432 -25 425 68 l 432 -79 q 416 -94 432 -94 l 425 -110 l 432 -110 q 502 161 502 -69 q 594 408 594 382 l 594 431 l 587 446 q 541 416 548 416 q 594 555 559 555 q 617 524 617 555 l 633 524 q 703 663 685 663 q 1027 941 1027 833 l 1004 1041 l 988 1041 q 810 871 988 871 q 671 941 737 871 q 617 910 642 910 q 416 1010 416 916 l 401 1010 q 386 918 386 943 l 378 918 q 347 925 361 918 q 200 1057 247 1057 l 193 1057 q 216 987 216 1027 l 216 948 q 200 933 216 933 l 193 933 q 131 1018 131 977 q 46 1141 46 1093 l 46 1188 q 85 1289 46 1234 l 85 1296 l 77 1296 m 558 459 q 572 479 558 479 l 565 452 l 558 452 l 558 459 "},"8":{"ha":1007,"x_min":-185,"x_max":922,"o":"m 122 1306 q 68 1137 68 1219 l 68 1114 q 107 838 107 966 q 61 799 107 799 l 92 760 q 253 714 234 734 q -62 492 80 492 l -31 430 q -185 153 -89 290 q -132 45 -139 92 q -62 -132 -81 45 q -132 -354 -62 -241 l -123 -370 q -47 -300 -85 -352 q 30 -24 5 -300 q 245 84 30 45 q 422 45 349 68 l 430 45 q 522 199 430 128 q 730 260 578 243 l 745 253 q 783 391 760 351 q 922 614 897 539 q 907 637 922 637 q 737 561 810 561 l 699 561 q 560 637 560 561 l 560 668 q 653 753 582 668 l 661 753 l 661 737 l 653 699 l 661 699 q 707 745 703 745 q 829 953 707 836 l 829 960 q 791 999 791 960 q 814 1137 791 1016 q 661 1260 743 1260 l 637 1260 l 637 1244 q 714 1168 714 1219 q 460 922 714 970 q 361 999 412 922 l 330 953 q 260 1076 260 1043 l 253 1076 q 230 1014 230 1076 l 222 1014 q 122 1214 147 1078 l 138 1306 l 122 1306 m 237 899 q 407 838 271 868 q 576 868 511 845 l 591 868 q 576 829 576 843 q 399 668 493 772 q 330 768 355 758 q 237 891 237 801 l 237 899 m 237 445 q 307 484 267 445 l 338 484 l 391 476 l 384 437 q 422 384 384 407 l 430 384 q 445 460 430 412 l 484 460 q 545 437 520 437 q 614 460 593 460 q 560 407 560 414 l 276 253 l 245 260 q 84 230 134 253 l 76 230 q 168 353 168 340 l 130 353 q 115 368 117 353 q 191 476 161 414 q 237 445 199 476 "},"9":{"ha":1019,"x_min":-135,"x_max":930,"o":"m 233 1370 q 163 1186 195 1370 q 202 995 202 1054 l 202 888 l 186 865 q 163 872 179 865 q 125 795 141 872 q 56 673 56 692 l 56 627 q 102 543 56 591 l 110 543 l 110 589 q 210 711 125 711 l 218 711 q 393 650 242 696 q 240 466 284 510 l 240 458 q 294 428 267 458 q 125 275 208 275 l 95 275 l 95 259 l 133 252 l 125 237 q -28 137 62 219 q -135 -16 -114 62 q -127 -100 -135 -34 l -112 -100 l -112 -77 q 202 114 -56 91 q 210 106 202 106 l 225 114 q 233 91 233 98 q 286 37 233 37 q 378 -200 307 -53 q 340 -315 378 -258 l 340 -323 l 348 -323 q 463 -193 463 -237 q 424 144 463 -100 q 463 275 463 256 l 463 305 q 424 275 458 305 q 432 374 432 324 q 470 512 470 465 l 500 497 q 662 665 512 497 l 662 734 q 746 819 677 734 l 761 811 l 753 765 l 753 758 l 807 811 q 930 1017 807 912 l 930 1025 l 914 1025 l 899 1017 l 891 1048 q 907 1202 891 1079 q 761 1324 847 1324 l 730 1324 l 730 1309 q 814 1232 782 1309 q 800 1163 814 1163 q 577 987 800 1056 q 463 1063 505 987 q 439 1017 447 1063 q 355 1147 369 1081 q 332 1086 332 1147 l 325 1086 q 317 1094 317 1086 q 225 1263 269 1094 q 240 1370 225 1312 l 233 1370 m 340 956 l 348 956 q 509 903 382 930 q 677 933 612 910 l 692 933 q 585 826 677 882 q 470 711 489 711 q 271 803 403 767 l 271 811 q 309 872 309 861 q 332 826 332 866 l 348 826 q 355 849 348 833 q 340 956 355 861 "},"\u0000":{"ha":0,"x_min":0,"x_max":0,"o":""}," ":{"ha":345,"x_min":0,"x_max":0,"o":""},"!":{"ha":456,"x_min":140,"x_max":310,"o":"m 212 222 l 237 222 l 292 925 q 278 972 292 956 q 235 987 264 987 q 193 972 208 987 q 179 925 179 956 l 212 222 m 151 113 q 140 92 140 102 q 147 75 140 83 l 207 6 q 227 -3 216 -3 q 246 10 233 -3 l 300 70 q 310 91 310 81 q 302 111 310 100 l 248 169 q 227 180 235 180 q 207 170 217 180 l 151 113 "},"\"":{"ha":456,"x_min":68,"x_max":390,"o":"m 134 751 l 176 995 q 178 1018 178 1013 q 164 1056 178 1043 q 123 1069 149 1069 q 82 1056 96 1069 q 68 1017 68 1042 q 71 995 68 1010 l 113 751 l 134 751 m 345 751 l 387 995 q 390 1018 390 1013 q 375 1056 390 1043 q 334 1069 361 1069 q 294 1056 308 1069 q 280 1017 280 1042 q 283 995 280 1010 l 325 751 l 345 751 "},"#":{"ha":906,"x_min":79,"x_max":827,"o":"m 404 583 l 569 583 l 511 386 l 347 386 l 404 583 m 456 972 l 361 649 l 161 649 l 142 583 l 342 583 l 283 387 l 100 387 l 79 320 l 264 320 l 170 0 l 232 0 l 328 320 l 491 320 l 397 0 l 459 0 l 554 320 l 744 320 l 764 387 l 575 387 l 631 583 l 807 583 l 827 649 l 651 649 l 747 972 l 684 972 l 588 649 l 424 649 l 519 972 l 456 972 "},"$":{"ha":688,"x_min":77,"x_max":665,"o":"m 391 1053 l 342 1053 l 342 985 q 161 916 233 975 q 77 732 77 844 q 139 563 77 625 q 342 459 197 505 l 342 28 q 223 58 293 28 q 120 211 154 87 l 87 211 l 87 -14 l 121 -14 q 149 17 132 17 q 161 13 155 17 q 342 -13 214 -11 l 342 -174 l 391 -174 l 391 -12 q 584 70 503 0 q 665 273 665 140 q 610 452 665 391 q 391 576 555 513 l 391 943 q 484 916 434 937 q 598 795 557 886 l 631 795 l 562 986 l 528 986 q 500 956 517 956 q 487 960 494 956 q 391 983 437 978 l 391 1053 m 391 444 q 547 368 505 408 q 593 244 593 323 q 535 96 593 149 q 391 31 476 42 l 391 444 m 342 592 q 186 669 221 632 q 149 772 149 706 q 207 896 149 846 q 342 945 261 941 l 342 592 "},"%":{"ha":1092,"x_min":42,"x_max":1050,"o":"m 304 989 q 175 956 238 989 q 77 862 113 923 q 42 732 42 800 q 77 605 42 665 q 174 510 111 544 q 304 475 237 475 q 436 510 373 475 q 533 605 498 544 q 567 732 567 665 q 532 862 567 800 q 434 956 496 923 q 304 989 371 989 m 140 723 q 137 765 137 744 q 147 844 137 805 q 197 936 161 903 q 273 971 232 969 l 281 971 q 359 945 319 971 q 431 861 401 917 q 469 742 461 805 q 472 698 472 720 q 463 623 472 659 q 414 530 449 564 q 336 494 378 496 q 327 494 332 494 q 250 521 288 494 q 177 605 206 550 q 140 723 149 661 m 201 -20 l 260 -20 l 896 971 l 839 971 l 201 -20 m 787 500 q 658 467 721 500 q 560 372 595 433 q 525 243 525 311 q 559 115 525 176 q 656 20 594 54 q 787 -14 719 -14 q 919 20 856 -14 q 1016 115 981 54 q 1050 243 1050 176 q 1015 372 1050 311 q 916 467 979 433 q 787 500 853 500 m 623 233 q 620 275 620 254 q 630 355 620 315 q 680 446 644 413 q 756 481 715 479 l 764 481 q 842 456 802 481 q 914 371 884 427 q 952 252 944 315 q 955 208 955 230 q 946 133 955 170 q 897 41 932 75 q 819 5 861 7 l 811 5 q 732 31 772 5 q 660 116 689 60 q 623 233 631 171 "},"&":{"ha":1141,"x_min":103,"x_max":1124,"o":"m 713 133 q 625 72 680 94 q 510 49 570 49 q 378 79 441 49 q 267 165 315 109 q 198 276 222 215 q 174 399 174 338 q 215 538 174 479 q 337 596 257 596 l 713 133 m 945 0 l 1054 0 l 1124 157 l 1090 157 q 960 71 1057 82 l 949 71 q 781 163 855 71 q 886 361 865 271 q 985 515 920 515 l 1046 515 l 1046 549 l 745 549 l 745 515 l 806 515 q 848 449 848 515 q 837 361 848 414 q 755 195 821 294 l 395 650 q 326 831 326 742 q 353 910 326 880 q 425 941 381 941 q 521 916 463 941 q 626 795 589 886 l 657 795 l 592 986 l 561 986 q 535 956 551 956 q 523 960 529 956 q 427 986 473 986 q 303 924 355 986 q 251 790 251 861 q 265 715 251 752 q 307 636 279 677 q 155 533 206 605 q 103 353 103 462 q 202 91 103 193 q 456 -11 300 -11 q 619 23 546 -11 q 738 106 692 56 q 851 17 795 34 q 945 0 907 0 "},"'":{"ha":235,"x_min":68,"x_max":178,"o":"m 134 751 l 176 995 q 178 1018 178 1013 q 164 1056 178 1043 q 123 1069 149 1069 q 82 1056 96 1069 q 68 1017 68 1042 q 71 995 68 1010 l 113 751 l 134 751 "},"(":{"ha":514,"x_min":171,"x_max":475,"o":"m 171 408 q 238 48 172 220 q 420 -251 304 -123 l 475 -251 q 319 46 358 -87 q 280 400 280 176 l 280 415 q 319 770 280 639 q 475 1067 358 903 l 420 1067 q 238 767 304 939 q 171 408 172 595 "},")":{"ha":514,"x_min":39,"x_max":343,"o":"m 94 -251 q 276 48 210 -123 q 343 408 342 220 q 276 767 342 595 q 94 1067 210 939 l 39 1067 q 195 770 156 903 q 234 415 234 639 l 234 400 q 195 46 234 176 q 39 -251 156 -87 l 94 -251 "},"*":{"ha":694,"x_min":148,"x_max":546,"o":"m 338 878 q 262 928 294 895 q 212 970 225 966 q 199 972 205 972 q 176 964 188 972 q 152 928 159 952 q 148 904 148 916 q 152 884 148 893 q 180 859 159 865 q 189 857 183 857 q 242 865 205 857 q 278 868 260 868 q 332 861 304 868 q 261 805 302 825 q 205 770 214 782 q 197 749 197 760 q 200 735 197 742 q 227 701 206 715 q 265 686 246 686 l 269 686 q 302 705 289 688 q 315 766 309 715 q 347 850 321 810 q 378 765 372 810 q 393 701 385 713 q 426 686 405 686 q 427 685 426 685 q 467 700 447 685 q 493 736 488 715 q 494 747 494 741 q 486 773 494 761 q 432 805 478 783 q 361 861 391 824 q 416 869 388 869 q 453 865 434 869 q 505 859 488 859 q 517 861 513 859 q 543 886 536 866 q 546 905 546 895 q 542 930 546 917 q 516 966 534 954 q 492 972 505 972 q 478 970 486 972 q 431 929 466 966 q 355 878 399 895 q 380 966 357 925 q 404 1027 404 1013 q 388 1059 404 1046 q 346 1071 371 1071 q 303 1058 319 1071 q 288 1023 288 1044 q 313 966 288 1010 q 338 878 335 926 "},"+":{"ha":688,"x_min":59,"x_max":629,"o":"m 296 439 l 296 188 l 391 188 l 391 439 l 629 439 l 629 533 l 628 534 l 391 534 l 391 785 l 297 785 l 296 784 l 296 534 l 59 534 l 59 439 l 296 439 "},",":{"ha":378,"x_min":81,"x_max":252,"o":"m 161 175 l 81 90 l 81 62 q 168 -47 168 33 q 109 -176 159 -147 l 109 -205 q 203 -126 155 -205 q 252 28 252 -46 q 221 131 252 86 q 161 175 191 175 "},"-":{"ha":454,"x_min":79,"x_max":376,"o":"m 106 277 l 349 277 q 376 296 376 277 l 376 353 q 348 372 376 372 l 106 372 q 79 353 79 372 l 79 296 q 106 277 79 277 "},".":{"ha":378,"x_min":87,"x_max":257,"o":"m 98 113 q 87 92 87 102 q 94 75 87 83 l 154 6 q 174 -3 163 -3 q 193 10 180 -3 l 248 70 q 257 91 257 81 q 249 111 257 100 l 195 169 q 174 180 182 180 q 154 170 164 180 l 98 113 "},"/":{"ha":386,"x_min":9,"x_max":430,"o":"m 63 -34 l 430 972 l 376 972 l 9 -34 l 63 -34 "},":":{"ha":378,"x_min":87,"x_max":257,"o":"m 98 113 q 87 92 87 102 q 94 75 87 83 l 154 6 q 174 -3 163 -3 q 193 10 180 -3 l 248 70 q 257 91 257 81 q 249 111 257 100 l 195 169 q 174 180 182 180 q 154 170 164 180 l 98 113 m 98 583 q 87 562 87 572 q 94 545 87 553 l 154 476 q 174 467 163 467 q 193 480 180 467 l 248 540 q 257 561 257 551 q 249 581 257 570 l 195 639 q 174 650 182 650 q 154 640 164 650 l 98 583 "},";":{"ha":378,"x_min":81,"x_max":257,"o":"m 98 583 q 87 562 87 572 q 94 544 87 553 l 154 475 q 174 466 163 466 q 193 479 180 466 l 248 539 q 257 560 257 550 q 249 580 257 569 l 195 638 q 174 649 182 649 q 154 640 164 649 l 98 583 m 161 175 l 81 90 l 81 62 q 168 -47 168 33 q 109 -176 159 -147 l 109 -205 q 203 -126 155 -205 q 252 28 252 -46 q 221 131 252 86 q 161 175 191 175 "},"<":{"ha":688,"x_min":59,"x_max":629,"o":"m 629 728 l 629 842 l 59 513 l 59 457 l 629 131 l 629 244 l 205 485 l 629 728 "},"=":{"ha":688,"x_min":59,"x_max":629,"o":"m 59 428 l 59 333 l 629 333 l 629 428 l 59 428 m 59 640 l 59 545 l 629 545 l 629 640 l 59 640 "},">":{"ha":688,"x_min":59,"x_max":629,"o":"m 59 842 l 59 728 l 483 485 l 59 244 l 59 131 l 629 457 l 629 513 l 59 842 "},"?":{"ha":507,"x_min":90,"x_max":452,"o":"m 90 902 l 90 859 q 210 913 153 913 q 298 882 267 913 q 330 794 330 850 q 251 585 330 722 q 172 373 172 447 q 206 230 172 323 l 238 230 q 214 358 214 315 q 249 455 214 404 q 345 582 284 505 q 430 708 408 660 q 452 803 452 756 q 397 926 452 880 q 254 972 343 972 q 90 902 176 972 m 151 113 q 140 92 140 102 q 147 75 140 83 l 207 6 q 227 -3 216 -3 q 246 10 233 -3 l 300 70 q 310 91 310 81 q 302 111 310 100 l 248 169 q 227 180 235 180 q 207 170 217 180 l 151 113 "},"@":{"ha":1369,"x_min":68,"x_max":1276,"o":"m 659 422 q 764 478 727 435 l 764 155 q 678 42 744 45 q 554 101 597 42 q 511 233 511 160 q 557 368 511 320 q 659 422 603 415 m 922 20 q 1157 135 1038 21 q 1276 433 1276 250 q 1109 817 1276 661 q 696 972 941 972 q 386 891 536 972 q 152 660 236 810 q 68 345 68 509 q 151 32 68 180 q 383 -200 233 -117 q 696 -283 533 -283 q 1083 -159 905 -283 l 1083 -108 q 693 -249 879 -249 q 477 -186 596 -249 q 270 11 358 -124 q 182 357 182 145 q 228 602 182 481 q 411 843 283 750 q 677 937 538 937 q 1002 809 869 937 q 1160 443 1146 670 q 1104 183 1160 290 q 923 54 1048 77 q 859 133 859 54 l 859 532 q 802 639 859 597 q 671 683 745 682 q 550 669 600 683 q 501 642 501 656 l 501 534 l 532 534 q 566 619 532 579 q 648 659 600 659 q 736 621 709 659 q 764 536 762 583 q 734 486 764 504 q 660 457 705 468 q 542 424 597 448 q 452 346 488 399 q 416 233 417 292 q 493 74 416 142 q 667 6 569 6 q 757 25 721 6 q 812 68 793 43 q 854 32 829 43 q 922 20 880 20 "},"A":{"ha":793,"x_min":110,"x_max":907,"o":"m 897 1388 q 586 1172 789 1373 q 470 1067 571 1117 q 426 945 437 945 q 414 956 416 945 q 398 923 405 956 q 243 668 398 901 q 187 612 187 668 q 110 452 110 477 l 121 452 q 176 513 136 513 l 199 513 q 210 502 210 513 l 210 491 q 160 413 201 413 l 160 397 l 176 397 q 199 391 189 397 q 215 358 208 358 l 248 358 q 271 241 271 290 l 271 208 q 138 14 271 87 q 149 3 138 3 q 260 70 258 63 q 398 302 329 70 l 398 308 q 370 347 370 330 q 381 408 370 386 q 365 546 376 474 l 376 541 l 420 541 q 431 552 431 541 l 431 557 q 393 607 393 567 l 393 624 q 459 773 393 684 q 486 762 469 773 q 559 801 519 772 q 603 785 559 794 q 675 812 621 785 q 713 585 697 777 q 686 513 713 552 q 575 446 587 477 l 575 441 q 625 452 615 446 l 625 435 l 597 341 q 414 175 491 175 l 414 164 l 442 164 q 636 292 532 164 q 747 430 716 430 q 808 568 769 490 q 907 629 842 616 q 825 734 825 693 q 780 812 780 798 q 785 918 780 857 l 780 939 q 725 1017 780 958 q 741 1128 741 1112 q 725 1178 741 1137 l 713 1178 l 713 1128 q 669 1112 711 1112 l 664 1112 q 686 1166 679 1166 q 897 1383 689 1226 l 897 1388 m 519 962 q 608 1067 554 996 l 614 1067 l 619 1012 l 619 1000 q 597 934 610 955 q 603 928 603 934 q 652 979 608 928 l 659 939 l 659 895 l 642 895 q 575 867 610 895 q 526 890 554 867 l 519 890 l 526 862 q 498 834 505 834 l 486 834 l 486 906 q 559 956 559 932 l 553 967 q 519 956 535 956 l 519 962 "},"B":{"ha":1049,"x_min":61,"x_max":1122,"o":"m 159 1328 q 73 1114 73 1236 l 73 1046 q 135 972 73 1010 q 313 844 304 873 q 307 794 307 800 l 313 782 q 368 806 323 782 q 410 653 410 753 q 380 641 391 641 l 380 635 q 429 616 380 616 l 429 586 q 343 488 355 491 l 275 488 l 275 481 l 294 451 q 184 365 185 374 q 61 237 61 305 l 61 212 q 73 199 61 199 q 190 304 153 298 q 361 378 263 378 q 404 316 404 356 q 435 328 415 316 l 441 328 q 515 96 515 216 q 496 22 515 54 q 509 9 496 9 q 570 187 570 66 l 570 298 q 619 371 570 327 q 748 445 640 445 l 803 445 q 821 414 808 414 q 864 549 848 414 q 1011 635 972 635 l 1036 635 q 1073 616 1067 635 l 1085 623 q 1061 678 1061 655 l 1061 684 q 1122 917 1122 888 l 1122 966 l 1116 1009 l 1097 1009 q 1036 892 1097 957 q 920 844 984 859 q 871 862 906 844 q 815 819 842 827 l 815 825 q 797 819 809 825 q 772 825 786 825 l 711 819 l 705 831 q 944 1070 944 949 l 944 1076 l 938 1076 q 717 954 832 954 q 674 997 674 977 l 656 997 q 631 966 656 979 l 607 966 q 454 1070 489 966 l 441 1070 q 422 1009 441 1067 l 392 1015 q 269 1126 325 1126 l 251 1126 l 294 1034 l 294 1021 q 147 1156 260 1030 l 147 1261 q 159 1316 147 1276 l 159 1328 m 435 911 l 472 911 q 509 874 479 911 l 515 874 l 545 892 l 589 880 q 668 899 604 880 q 570 831 595 831 q 509 776 556 831 q 478 831 493 831 q 484 850 478 838 q 435 911 484 871 m 920 770 l 926 770 l 871 684 q 797 629 819 665 q 736 568 736 586 l 730 568 l 692 574 q 576 518 657 540 l 570 518 q 607 610 607 592 l 607 623 l 601 623 l 570 604 l 570 610 q 631 684 587 684 q 736 739 631 727 l 748 739 q 772 672 757 672 l 779 672 q 803 727 779 692 q 920 770 881 727 "},"C":{"ha":985,"x_min":71,"x_max":1046,"o":"m 785 1333 q 780 1327 785 1327 q 825 1168 825 1266 q 729 1027 825 1116 l 729 1032 q 757 1162 729 1133 l 751 1174 l 689 1112 q 604 1010 651 1010 l 598 1078 l 598 1083 l 593 1083 q 525 1010 547 1010 q 439 964 454 964 l 394 964 q 360 975 378 964 q 275 896 304 896 q 201 1021 201 910 l 191 1021 l 184 992 l 184 873 q 208 777 184 866 l 208 760 q 111 715 208 737 q 77 726 96 715 l 71 726 l 71 698 q 117 641 71 663 q 88 573 117 621 l 88 568 q 139 573 108 568 q 213 539 200 539 q 298 386 271 539 l 292 374 l 304 369 q 389 408 338 393 q 508 363 421 378 q 576 267 557 363 l 576 165 q 655 6 594 74 l 667 12 q 638 102 638 75 l 638 136 l 684 301 q 734 369 729 301 q 905 352 763 363 q 1035 222 1035 301 l 1046 222 l 1046 233 q 905 426 1046 366 q 825 516 841 426 q 604 488 686 494 q 598 494 598 488 q 513 539 549 509 q 468 528 492 528 l 417 528 q 406 562 417 549 l 377 556 q 264 624 356 556 l 264 635 q 304 681 286 635 l 309 681 q 332 635 309 671 l 355 652 q 389 749 369 716 q 491 857 389 831 l 508 845 l 513 845 q 593 879 547 845 q 576 789 593 848 l 576 743 q 694 635 607 684 q 672 726 672 685 l 672 749 q 701 811 686 811 q 729 789 729 797 l 740 794 q 729 828 729 818 q 836 987 729 915 q 910 1117 890 987 q 785 1333 910 1256 "},"D":{"ha":1108,"x_min":58,"x_max":1161,"o":"m 156 1382 q 58 1115 58 1237 q 71 1069 71 1086 q 228 945 96 1069 q 307 867 303 945 l 307 861 q 293 848 307 848 q 332 835 293 835 q 397 671 357 835 q 378 652 378 662 q 404 626 394 626 q 372 534 385 549 q 293 502 295 511 l 293 489 q 307 476 293 476 l 307 469 q 189 397 216 429 q 91 208 91 352 l 104 208 q 195 332 115 260 q 378 372 243 332 q 397 352 397 361 l 397 313 l 410 313 q 424 326 424 313 l 430 326 q 534 91 534 123 l 534 6 l 541 6 q 587 189 578 6 l 580 248 q 671 372 580 372 q 808 443 722 443 q 867 417 849 430 l 873 417 q 906 522 873 474 q 1010 646 906 614 l 1069 646 q 1161 593 1117 646 l 1161 606 q 1115 730 1115 665 q 991 958 1004 886 l 991 1037 q 1004 1174 991 1071 q 978 1265 1004 1194 l 965 1265 q 913 1122 965 1219 q 776 1010 913 1021 l 736 1010 q 665 1050 665 1027 q 613 1023 635 1023 l 606 1023 q 476 1128 511 1023 q 365 1102 383 1102 q 273 1213 365 1158 l 241 1213 l 241 1200 q 300 1109 285 1200 l 300 1076 q 208 1135 257 1076 q 136 1252 136 1180 l 136 1272 q 170 1382 136 1296 l 156 1382 m 450 952 q 469 945 469 952 q 606 867 547 945 l 619 867 l 619 900 l 626 932 q 717 913 711 913 l 776 913 q 887 945 807 913 q 893 906 887 916 q 887 880 887 906 l 861 880 l 861 873 q 932 743 861 841 l 932 736 l 815 626 q 736 580 736 603 q 580 515 683 580 l 580 522 q 632 626 632 611 l 632 652 q 600 639 621 652 q 547 698 547 646 l 547 763 q 515 776 547 776 q 450 952 490 872 "},"E":{"ha":697,"x_min":62,"x_max":768,"o":"m 304 1385 l 304 1378 q 381 1184 332 1345 q 339 1115 351 1115 l 319 1115 q 250 1143 279 1115 l 242 1143 q 298 997 298 1021 l 298 977 q 235 907 298 942 q 118 1004 118 930 l 118 1039 l 104 1039 l 97 997 q 215 831 97 883 l 215 776 q 180 727 215 727 l 180 720 q 194 706 180 706 l 201 706 q 312 768 258 715 l 367 727 l 374 727 q 326 686 374 705 q 173 595 282 613 l 166 595 q 118 637 163 595 q 90 741 102 741 l 83 741 q 62 665 62 687 l 62 644 q 194 498 62 557 q 242 429 242 498 q 298 388 298 422 q 353 326 353 342 q 347 319 347 326 l 347 304 q 381 284 347 289 q 388 180 388 215 l 388 173 q 263 14 388 111 l 263 0 l 291 0 q 519 215 420 0 q 505 270 519 222 l 505 277 q 561 360 540 360 l 575 360 q 630 319 630 327 q 651 401 644 319 q 768 561 749 492 l 768 602 q 755 658 768 609 l 748 658 l 699 589 q 637 519 637 555 l 589 519 q 568 498 568 509 q 513 457 513 471 q 485 485 485 474 q 360 519 360 511 l 360 526 q 444 582 389 526 q 568 713 498 713 q 665 658 620 698 l 671 658 l 671 671 q 616 755 671 713 q 526 789 526 760 q 401 880 401 869 q 485 983 485 880 q 554 942 517 952 l 568 949 q 575 907 568 918 l 610 914 q 679 859 637 914 l 679 817 q 665 762 679 787 l 671 762 q 713 831 713 789 l 713 838 q 692 956 713 865 q 707 1011 692 962 l 707 1066 l 692 1066 q 616 1031 689 1031 l 610 1031 q 519 1080 549 1031 q 457 1177 457 1108 q 312 1385 457 1253 l 304 1385 "},"F":{"ha":610,"x_min":58,"x_max":660,"o":"m 72 1343 q 58 1235 58 1275 l 58 1228 q 108 1042 58 1201 l 100 1013 q 144 848 144 893 l 144 841 q 115 762 144 820 l 130 755 l 136 755 q 180 770 156 755 l 180 762 q 158 626 180 712 q 201 590 201 600 l 201 562 q 165 461 201 528 q 65 340 65 388 l 65 296 q 79 282 65 282 l 86 282 q 151 354 92 354 q 244 175 197 354 l 244 153 q 165 17 217 17 l 165 3 q 330 160 330 3 l 330 196 q 315 260 330 214 q 323 340 315 291 q 301 433 301 420 q 366 418 355 418 l 366 425 q 345 490 345 452 q 351 569 345 520 q 345 590 345 583 l 373 605 q 351 741 359 664 q 423 762 391 741 q 530 841 515 841 l 530 855 q 502 863 515 855 q 373 820 425 820 q 337 870 339 820 q 301 977 301 949 q 366 956 328 956 q 401 913 401 956 q 459 956 459 922 q 660 1149 660 1020 l 660 1156 l 645 1156 q 488 1042 588 1042 l 416 1042 q 359 1120 416 1078 l 351 1120 l 359 1085 l 359 1063 q 337 1056 351 1063 q 237 1164 244 1164 l 222 1164 q 237 1106 237 1114 l 237 1092 q 86 1321 86 1239 l 86 1343 l 72 1343 "},"G":{"ha":918,"x_min":64,"x_max":981,"o":"m 820 1337 l 808 1332 q 826 1211 826 1296 l 826 1200 q 717 1017 773 1037 l 711 1074 q 740 1137 711 1104 l 734 1148 q 688 1108 723 1148 q 614 988 630 994 l 603 994 l 608 1051 l 608 1057 q 557 1005 557 1025 q 419 925 515 949 q 391 954 391 947 l 385 954 q 259 880 372 880 q 179 994 179 920 l 168 994 q 156 925 156 954 l 156 885 q 196 765 156 849 q 127 725 155 725 l 104 725 l 81 742 l 76 742 q 64 730 66 742 l 64 719 q 173 559 64 683 q 288 421 288 493 l 288 364 q 402 410 382 410 q 437 399 434 399 q 557 227 557 321 q 665 3 591 60 l 648 95 q 688 307 648 194 l 717 301 l 723 301 q 746 370 734 370 l 768 370 q 923 296 863 370 l 975 198 l 981 198 l 981 221 q 969 307 969 274 q 871 433 915 433 l 786 479 l 786 513 q 878 690 795 570 q 981 840 975 785 q 975 845 975 840 l 952 822 q 820 736 902 736 q 654 599 732 599 l 580 599 q 500 667 505 667 l 494 667 q 580 547 494 604 q 671 524 671 534 l 671 507 q 608 484 671 493 q 471 524 543 484 l 431 519 q 408 564 424 522 l 368 553 q 271 622 319 622 q 299 667 299 645 q 316 633 316 663 l 334 633 q 397 799 374 755 q 482 857 435 804 l 494 857 q 540 840 511 857 q 597 885 591 885 l 603 885 l 557 765 q 660 616 617 616 l 671 622 q 648 679 648 662 l 648 713 q 694 817 648 798 q 717 799 717 808 l 723 799 q 757 908 728 865 q 901 1068 901 1041 q 889 1131 901 1076 l 889 1206 q 820 1337 889 1255 "},"H":{"ha":677,"x_min":271,"x_max":998,"o":"m 581 1352 q 542 1339 564 1352 q 641 1215 613 1298 q 614 1046 641 1103 l 595 1046 q 535 1111 549 1046 l 522 1111 l 515 1078 q 602 935 515 1021 q 667 831 667 910 q 549 759 602 759 q 509 850 524 759 q 450 928 469 881 q 410 1078 441 1078 l 404 1078 q 416 1000 416 1032 l 416 994 q 324 1221 324 1083 l 324 1241 l 331 1254 q 324 1261 324 1254 q 271 1130 271 1181 l 271 1111 q 311 928 271 1059 q 304 922 304 928 q 291 935 293 922 l 278 928 q 344 785 344 825 l 344 759 q 331 674 344 732 q 363 681 355 674 q 370 596 370 600 q 357 570 370 586 l 357 564 q 397 505 397 528 l 397 492 q 390 459 397 471 q 284 296 284 337 l 284 270 l 298 224 l 311 224 q 351 302 311 280 l 370 302 q 430 146 404 302 q 357 9 430 65 q 370 -3 357 -3 l 390 -3 q 522 186 522 22 l 522 212 l 515 244 q 522 264 522 244 q 503 355 522 270 l 503 387 l 608 387 l 608 401 l 595 401 q 529 524 557 401 l 529 531 l 542 524 l 549 524 q 562 537 562 524 l 562 557 q 542 661 542 654 q 654 759 596 687 l 661 694 l 661 674 l 654 674 l 634 687 l 628 687 q 661 557 661 591 q 621 420 661 509 q 628 414 628 420 l 641 420 l 654 414 q 641 296 641 322 q 707 101 641 186 l 720 107 q 707 179 715 121 q 760 374 707 264 l 766 374 q 773 322 773 329 l 766 290 l 773 290 q 800 349 788 290 q 786 420 786 412 q 826 517 806 517 q 865 629 842 629 l 885 629 q 991 570 913 629 l 998 570 q 905 694 976 633 q 832 746 832 713 q 839 831 832 749 q 826 857 839 840 q 806 850 819 857 l 800 850 q 852 994 800 972 l 852 1000 l 846 1000 q 753 987 824 1000 q 740 1026 745 987 q 753 1097 740 1029 q 740 1149 740 1140 q 581 1352 722 1352 "},"I":{"ha":466,"x_min":62,"x_max":583,"o":"m 583 1276 q 526 1265 538 1265 q 368 1134 441 1246 l 368 1076 q 336 965 336 986 l 341 955 q 336 949 336 955 l 341 939 q 294 865 337 865 l 283 865 l 273 871 l 267 860 q 299 829 291 829 l 315 829 q 357 850 334 829 l 362 850 q 341 787 362 830 q 267 629 267 669 l 278 629 q 331 676 278 654 l 336 676 l 336 655 q 331 629 336 638 q 273 503 311 525 l 273 466 q 220 387 273 437 q 62 292 145 311 q 89 176 89 231 l 89 144 l 189 71 l 189 60 q 168 14 180 14 l 173 3 q 215 50 199 14 l 215 71 q 168 197 168 180 l 168 218 q 315 302 168 230 q 404 366 379 353 q 478 350 441 360 l 483 350 q 441 445 483 382 q 446 476 441 448 q 425 560 425 550 l 425 566 q 446 623 425 592 q 505 718 492 685 q 499 724 499 718 q 467 713 482 713 l 462 713 q 431 787 431 746 q 452 812 446 812 q 441 897 452 838 q 494 939 479 935 q 446 1076 446 1038 l 446 1107 q 467 1176 446 1127 q 583 1265 523 1245 l 583 1276 "},"J":{"ha":616,"x_min":56,"x_max":665,"o":"m 436 1283 q 447 1242 447 1251 q 389 1200 441 1200 q 321 1143 321 1191 q 275 1034 317 1120 l 306 1023 q 436 851 412 932 q 431 794 436 829 q 457 680 457 764 l 457 622 l 447 622 q 405 674 405 653 l 395 674 l 395 637 q 441 450 441 492 l 436 450 q 385 487 408 483 l 342 460 l 342 456 q 400 425 382 456 l 400 393 l 395 367 q 337 398 358 375 q 254 456 264 398 q 321 534 292 534 l 321 544 q 155 466 298 544 q 87 586 87 466 l 87 596 l 77 596 l 56 487 l 56 481 q 181 378 94 378 l 181 362 l 176 351 l 192 341 l 218 341 q 259 299 218 304 q 249 248 259 248 q 259 237 249 237 l 296 237 q 301 180 296 225 q 233 60 301 125 l 233 55 l 239 55 q 327 117 276 55 q 385 252 349 222 l 395 252 q 379 180 395 228 q 410 117 410 129 q 556 3 444 45 l 556 8 q 463 170 463 89 q 541 331 463 241 l 541 336 l 504 382 q 530 445 504 398 q 519 497 530 465 q 561 555 545 551 q 597 539 578 555 l 603 539 l 597 575 q 561 695 561 652 l 561 705 q 603 804 603 774 q 665 888 665 881 l 665 892 l 650 892 l 597 898 q 593 892 597 892 q 582 898 593 898 q 389 1075 457 1036 l 395 1112 q 473 1236 473 1217 q 441 1283 473 1261 l 436 1283 "},"K":{"ha":823,"x_min":62,"x_max":902,"o":"m 76 1291 q 62 1181 62 1227 l 62 1175 q 131 826 131 882 l 131 819 q 117 730 131 792 l 117 724 l 131 724 l 165 751 q 138 608 165 646 q 185 526 185 558 l 185 492 q 138 423 138 444 q 83 321 83 377 q 96 267 96 273 l 110 267 l 110 300 q 165 341 110 341 l 165 334 q 240 178 209 334 l 240 171 q 124 14 240 70 q 138 0 124 0 l 151 0 q 322 184 322 55 l 322 191 q 308 245 322 198 l 308 307 q 288 410 308 355 l 322 403 l 356 403 l 356 416 q 322 574 322 416 l 322 642 l 376 621 q 547 471 475 471 l 547 437 q 588 349 547 410 l 568 321 l 568 307 l 574 273 q 527 218 570 273 q 370 68 486 68 l 370 62 q 383 47 370 47 l 445 47 q 650 151 471 47 q 690 245 675 245 q 861 349 735 349 l 868 349 l 882 341 q 888 349 882 349 q 759 416 885 367 q 690 526 690 505 l 690 581 l 697 628 l 684 635 q 623 608 648 608 l 574 608 q 431 696 547 608 l 431 710 q 561 949 537 847 q 718 1045 561 963 l 752 1038 q 759 1045 752 1045 l 752 1072 q 902 1270 752 1195 l 902 1284 q 690 1181 831 1284 q 541 1059 580 1059 l 513 1072 l 438 1024 q 363 1031 422 1024 l 363 1024 l 438 915 q 329 779 392 826 l 322 779 l 322 840 q 308 854 322 852 q 233 1099 257 917 l 220 1099 q 205 1052 220 1072 q 83 1291 83 1142 l 76 1291 "},"L":{"ha":796,"x_min":54,"x_max":875,"o":"m 195 1278 l 170 1259 q 87 1016 106 1183 l 87 1006 q 146 933 109 971 q 229 787 146 859 q 282 690 264 711 l 282 729 q 321 608 321 682 l 321 603 l 302 603 l 302 598 q 355 554 339 554 l 336 515 q 233 462 294 462 l 248 442 l 243 433 q 136 359 157 406 q 54 233 54 300 l 54 229 q 78 170 62 170 l 83 170 l 83 190 l 87 214 q 83 219 83 214 q 132 267 106 267 q 277 330 227 330 q 296 326 286 326 q 336 336 317 326 l 336 321 q 307 267 336 304 l 307 262 q 345 282 330 270 l 350 282 q 389 229 376 233 q 433 63 433 152 q 408 5 433 50 q 413 0 413 5 q 467 92 467 41 l 467 102 q 462 243 467 164 q 574 389 462 345 q 627 365 627 389 l 637 365 q 763 559 637 476 q 827 675 804 660 q 875 870 856 848 l 875 880 l 861 870 q 724 637 804 797 q 612 534 682 614 l 603 540 l 593 540 l 593 511 q 583 525 583 511 q 525 491 560 525 l 496 496 q 457 457 460 457 l 448 457 q 452 496 452 476 q 511 569 511 534 l 500 569 q 467 540 500 549 l 462 540 l 481 612 q 471 690 477 690 l 448 686 q 360 836 429 692 l 360 841 l 365 841 q 433 783 378 838 l 437 783 l 437 792 q 408 865 425 865 q 355 996 393 958 l 350 996 l 360 938 q 311 977 316 977 q 219 1059 260 1059 l 219 1055 q 248 991 248 1023 l 248 953 q 195 1050 218 953 q 146 1108 146 1068 l 146 1128 q 199 1278 146 1147 l 195 1278 "},"M":{"ha":631,"x_min":68,"x_max":692,"o":"m 256 1279 q 205 1240 232 1266 q 111 984 111 1093 l 115 941 q 107 886 115 920 q 90 929 95 886 l 90 937 l 85 937 q 68 899 78 937 l 81 831 q 141 664 141 749 q 124 549 141 616 l 73 463 q 77 459 77 463 q 137 497 79 459 q 145 472 145 497 q 141 454 145 462 l 145 446 q 137 399 141 408 q 85 378 85 383 q 141 305 127 342 q 193 194 152 254 q 260 79 260 140 l 260 66 q 248 10 260 32 q 252 6 252 10 q 291 100 291 41 l 291 104 q 210 335 291 155 l 210 356 q 218 408 210 378 l 222 408 q 231 387 222 387 l 235 387 q 239 404 235 396 q 231 510 239 430 q 243 660 243 649 q 286 545 256 653 q 265 515 278 517 q 321 391 321 454 q 282 283 321 320 l 282 279 q 325 305 294 279 q 368 454 353 346 q 363 467 363 463 l 368 484 l 376 484 l 380 463 l 385 463 q 410 510 391 465 l 406 570 l 410 578 q 500 660 500 645 l 509 660 q 517 612 509 652 l 517 608 q 457 523 517 545 l 410 369 l 410 356 q 466 203 410 274 l 474 203 q 466 241 466 231 q 474 339 474 335 q 522 463 474 434 q 589 515 546 474 q 615 493 589 509 q 572 378 615 401 l 577 369 q 624 399 615 387 q 692 668 659 399 l 692 673 q 684 681 692 680 l 680 681 q 645 643 680 643 l 641 643 q 615 728 615 690 l 615 801 q 589 839 597 821 q 598 895 589 861 q 658 1023 658 1010 l 650 1023 q 581 984 625 984 q 526 1061 557 984 q 410 1125 500 1103 l 410 1121 q 444 1074 444 1095 l 444 1048 l 453 1048 l 453 1078 q 530 911 461 1071 q 509 848 530 894 q 487 890 487 857 q 466 839 466 872 l 466 770 q 418 720 466 753 q 338 608 362 621 q 291 745 321 673 q 308 809 295 781 q 303 813 303 809 l 282 805 l 278 826 q 299 924 278 898 q 295 929 295 924 q 231 844 231 871 q 197 963 224 844 q 201 997 197 974 q 175 1069 175 1052 l 175 1082 q 260 1270 175 1192 l 256 1279 m 594 536 q 615 566 609 566 l 611 527 l 607 527 l 594 536 "},"N":{"ha":870,"x_min":68,"x_max":952,"o":"m 753 1289 q 747 1284 753 1284 q 803 1162 803 1212 l 803 1140 q 687 985 803 1080 l 682 1013 l 682 1024 q 736 1090 682 1057 l 731 1101 q 637 1035 690 1101 q 538 770 615 992 l 532 770 q 505 825 532 805 l 499 825 l 505 814 l 505 753 q 488 709 505 737 l 406 859 l 455 980 l 455 985 l 450 985 l 422 969 q 626 1179 422 1114 l 626 1190 l 604 1190 q 406 1124 531 1190 q 317 1029 349 1029 l 311 1029 q 273 1096 273 1055 q 251 1024 255 1096 l 251 964 q 190 825 251 937 q 118 688 190 722 q 68 522 68 688 q 146 422 113 422 q 135 472 146 437 l 135 494 q 190 572 161 572 l 207 572 q 218 560 218 572 l 218 549 l 212 538 q 284 505 284 532 q 345 361 334 450 l 345 351 q 256 196 328 260 l 256 191 q 427 372 427 257 l 427 384 l 378 533 q 300 676 340 533 l 300 688 q 311 699 300 697 l 323 699 q 399 560 399 657 q 438 588 433 588 q 505 456 465 588 l 505 450 l 494 433 l 494 422 q 515 378 515 397 l 515 372 q 505 174 515 330 q 593 3 505 71 l 599 3 l 599 8 q 560 119 560 60 l 560 124 q 615 296 586 268 q 621 290 621 296 l 626 290 q 676 372 639 372 q 814 345 707 345 q 930 185 899 345 l 941 185 l 941 224 q 952 257 941 239 q 886 428 934 389 q 715 483 807 450 l 731 505 l 731 511 q 604 616 604 511 q 643 632 640 616 q 621 676 621 657 q 654 798 654 765 q 709 776 692 776 l 720 781 l 703 804 l 703 825 q 764 925 703 853 q 880 1107 880 1005 l 880 1151 q 753 1289 880 1212 m 306 980 q 323 1002 314 1002 l 334 1002 q 323 975 323 984 l 317 975 l 306 980 m 328 820 q 339 809 339 820 l 339 787 l 334 787 q 317 804 317 795 l 328 820 m 311 765 l 323 765 q 345 726 338 765 l 345 715 q 311 765 311 733 m 184 643 q 201 627 201 635 l 201 604 q 168 593 186 604 q 184 643 168 618 "},"O":{"ha":648,"x_min":62,"x_max":693,"o":"m 469 1278 l 469 1251 q 475 1180 469 1217 q 321 956 420 956 l 216 1047 q 119 1187 119 1047 l 104 1187 l 98 1117 l 98 1068 q 111 1005 98 1050 q 174 858 174 921 l 174 816 q 132 774 157 779 q 119 809 119 791 l 104 809 q 111 669 111 715 l 111 655 l 119 641 q 104 620 111 641 l 111 592 q 90 522 111 559 q 111 396 111 404 q 62 283 96 315 q 146 291 75 283 q 189 214 173 291 q 153 94 189 175 q 174 81 153 81 l 174 73 q 111 -165 111 -58 q 231 -382 111 -303 l 237 -382 q 174 -172 174 -275 q 189 -115 174 -142 q 300 66 288 -5 l 308 66 q 385 -3 370 -3 l 399 45 q 517 18 435 18 q 672 -136 672 -45 l 686 -136 q 630 52 686 -49 q 504 165 504 149 q 665 438 504 352 q 595 599 595 513 q 693 802 595 716 l 693 816 q 567 956 637 816 q 475 1278 500 1254 l 469 1278 m 342 844 q 427 914 370 844 q 469 718 439 746 q 427 627 469 694 q 454 473 427 559 q 378 277 378 341 l 370 277 l 349 403 l 336 403 l 329 375 q 308 417 315 375 q 321 606 308 454 q 315 613 315 606 l 308 613 q 245 500 308 541 l 224 500 q 258 550 258 543 l 245 641 l 252 641 q 294 774 278 774 l 308 774 q 342 725 342 756 l 349 725 l 363 732 q 342 844 342 809 m 300 304 l 315 312 l 329 249 l 329 228 l 321 228 l 300 304 "},"P":{"ha":704,"x_min":66,"x_max":829,"o":"m 99 1280 q 85 1180 85 1217 l 85 1160 q 99 1021 85 1056 q 165 842 137 1021 q 132 743 165 792 q 139 736 139 743 l 172 743 l 178 743 l 165 703 l 172 689 q 152 603 172 650 q 199 570 199 578 l 199 564 q 159 471 163 512 q 66 357 66 435 q 85 252 66 330 l 99 252 l 99 264 q 172 391 99 359 l 178 391 q 212 338 178 368 q 199 271 199 278 q 225 225 199 263 q 125 20 225 82 l 125 6 q 292 145 292 56 q 285 212 292 177 q 318 331 298 294 q 285 404 285 374 l 285 411 q 331 391 298 411 q 378 411 378 396 l 378 417 q 304 464 321 417 l 304 477 q 378 570 304 512 l 378 576 q 318 623 318 576 l 318 676 q 364 663 351 663 q 490 576 490 663 l 504 576 q 530 636 520 636 q 550 762 538 743 q 610 842 597 795 q 829 1021 728 885 q 729 981 759 981 q 623 1041 680 981 q 603 1008 608 1041 q 450 948 573 968 l 378 1001 q 371 994 378 994 l 378 981 l 378 975 l 371 962 q 225 1054 319 962 l 218 1054 l 225 1021 l 212 1021 l 212 1027 q 112 1220 112 1200 l 112 1280 l 99 1280 m 258 922 q 397 888 258 901 l 404 888 l 404 855 l 411 842 q 564 901 467 901 q 550 869 550 880 q 437 729 437 784 q 345 749 414 729 q 304 736 316 736 q 258 915 271 802 l 258 922 "},"Q":{"ha":651,"x_min":68,"x_max":782,"o":"m 406 1280 l 406 1263 q 396 1210 406 1210 q 310 996 396 1042 l 304 996 q 192 1076 222 1066 q 149 1210 149 1120 l 138 1210 q 117 1119 117 1133 q 133 1033 117 1100 q 127 1027 127 1033 q 170 904 170 928 l 170 883 q 160 872 170 872 l 144 872 q 133 899 133 872 l 122 899 q 111 808 111 830 q 117 743 117 753 q 68 631 117 732 q 90 469 68 506 q 165 314 165 428 l 165 298 q 100 163 100 178 l 100 158 q 106 110 100 140 q 181 -3 148 -3 l 186 -3 q 170 56 170 39 l 170 137 q 181 163 172 163 q 267 239 181 174 l 358 239 q 401 228 381 239 q 417 287 417 243 l 422 287 q 551 201 422 252 q 777 228 609 201 l 782 228 l 782 239 q 707 255 741 255 l 702 255 l 691 250 q 568 281 601 266 q 460 448 495 323 q 492 486 469 472 l 509 486 l 514 464 l 525 464 l 525 486 q 584 582 525 509 q 659 673 659 633 l 659 722 l 653 786 l 643 786 q 621 722 643 751 q 573 786 594 770 q 600 888 573 821 l 594 888 q 487 1022 522 888 q 417 1280 467 1155 l 406 1280 m 245 775 q 278 867 255 789 q 412 974 362 915 q 465 819 412 875 q 444 754 444 764 q 476 679 444 718 l 455 679 q 401 802 401 732 l 391 802 q 385 732 391 778 q 444 598 392 676 q 380 528 404 570 q 332 625 332 557 q 315 555 315 625 l 315 517 q 337 443 315 495 l 283 437 l 283 458 q 186 614 220 550 q 214 663 214 657 l 219 663 q 235 631 235 659 l 235 614 l 245 614 l 251 668 l 251 764 l 245 775 m 288 319 l 315 319 l 310 298 l 283 298 q 288 319 288 307 "},"R":{"ha":755,"x_min":60,"x_max":833,"o":"m 98 1282 q 60 1122 60 1221 l 60 1109 q 130 821 130 847 l 130 777 q 111 707 130 749 q 123 694 111 694 l 162 720 l 168 720 l 168 636 q 149 585 168 617 q 168 566 149 566 q 188 489 188 566 l 188 483 q 155 444 163 444 q 66 240 66 389 l 79 240 q 149 336 79 298 q 213 253 178 336 q 207 246 207 253 l 207 233 q 226 138 226 157 l 226 132 q 136 16 182 16 l 136 3 l 149 3 q 220 29 160 3 q 321 195 321 121 q 302 246 321 214 q 309 342 302 278 q 290 399 290 389 l 290 406 l 321 399 l 347 412 q 321 451 347 419 l 321 464 q 328 553 321 498 l 328 559 q 347 553 334 559 l 360 559 q 334 694 334 640 l 379 694 q 431 707 424 707 q 456 662 456 697 l 456 630 q 603 668 515 665 l 610 668 l 597 623 l 597 578 q 590 483 597 547 l 603 483 l 603 496 l 629 496 q 667 476 661 496 q 545 393 644 476 l 545 431 l 494 380 q 444 170 494 365 l 444 138 q 552 22 444 88 l 552 35 q 526 132 526 67 q 642 310 526 238 q 833 496 671 384 l 833 502 l 821 502 q 750 623 750 536 l 750 732 q 795 886 795 831 l 795 899 l 782 899 q 743 847 782 876 q 571 758 743 789 q 500 789 549 758 l 545 841 q 622 866 622 841 q 737 1000 622 908 l 737 1007 l 705 1000 l 699 1000 q 661 1013 682 1000 q 584 1135 608 1120 l 577 1135 l 584 1122 l 584 1097 q 513 994 572 994 l 386 962 q 321 1058 386 1002 l 309 1052 q 321 1013 321 1031 l 321 987 l 315 987 q 220 1090 262 987 l 207 1090 l 207 1013 q 98 1198 98 1117 l 98 1224 q 111 1282 98 1240 l 98 1282 m 232 911 l 239 911 q 290 899 283 899 l 354 899 l 366 905 q 379 847 379 882 l 386 847 q 520 911 437 911 q 481 873 491 873 q 321 777 432 777 q 315 841 315 810 l 232 911 "},"S":{"ha":1011,"x_min":71,"x_max":1120,"o":"m 236 1299 q 118 1122 173 1271 l 118 1104 q 224 934 118 1013 q 313 745 313 801 q 336 786 323 745 q 425 645 425 743 q 401 610 425 621 l 407 597 l 413 597 q 572 645 473 597 l 584 645 l 602 633 q 725 680 659 680 l 725 651 q 754 621 747 621 q 760 674 754 670 q 890 656 861 656 l 878 633 q 725 522 728 541 q 684 486 684 517 q 637 504 654 504 l 631 504 q 613 480 616 504 q 477 433 568 441 l 431 433 l 271 474 l 271 468 l 283 450 l 283 433 q 130 351 248 433 q 71 197 71 321 l 71 168 q 83 156 71 156 l 89 156 q 95 203 89 171 q 201 298 95 248 q 348 345 267 308 l 366 345 q 383 309 383 340 l 383 292 q 372 280 383 280 l 378 268 q 425 292 404 292 l 431 292 q 448 244 448 292 q 513 68 513 203 q 501 9 501 20 l 513 9 q 566 144 554 83 l 560 156 l 566 156 q 554 239 554 200 l 554 256 q 731 386 663 386 q 778 327 778 386 l 790 327 q 831 404 831 401 l 825 415 l 831 415 q 913 522 831 480 q 1061 568 913 568 l 1067 568 l 1061 597 l 1061 645 q 1120 810 1120 793 l 1120 869 l 1114 898 l 1102 898 q 1025 798 1102 860 q 902 757 922 774 l 848 757 q 760 739 793 739 l 736 739 q 578 781 594 768 q 495 733 511 733 l 501 757 q 460 869 501 808 q 519 827 519 869 l 525 827 q 548 857 536 831 l 602 822 q 713 827 666 827 l 725 827 q 749 774 749 788 l 754 774 q 778 798 778 789 q 937 992 937 869 l 925 992 q 802 892 882 892 l 754 892 q 660 957 697 892 l 619 939 l 607 945 l 572 939 l 560 939 q 484 1027 484 960 l 490 1027 l 484 1040 q 425 975 432 975 l 407 975 q 301 1081 383 1035 q 313 1010 301 1063 l 313 987 l 307 987 q 248 1069 250 1034 q 195 1158 195 1107 l 195 1193 q 242 1287 195 1231 l 236 1299 "},"T":{"ha":827,"x_min":65,"x_max":1096,"o":"m 1062 1294 q 1017 1154 1062 1211 q 905 1064 974 1154 q 754 1008 863 1043 l 675 1014 q 631 986 645 1014 q 620 997 621 986 l 620 1019 q 670 1187 670 1136 q 659 1255 670 1228 q 637 1182 648 1255 q 502 1064 607 1107 q 261 1014 502 1021 q 228 1031 254 1014 q 166 1014 166 1025 q 65 863 65 977 l 77 863 q 149 935 107 935 l 155 935 q 222 919 208 919 l 239 919 l 379 935 q 340 885 373 885 l 340 873 q 452 913 452 898 l 457 913 q 474 829 474 854 q 452 756 474 801 q 457 739 452 751 l 479 751 l 486 751 l 486 700 q 440 610 473 610 q 362 549 414 549 l 357 560 q 345 549 347 560 q 390 521 359 521 l 412 521 q 345 313 393 313 q 306 330 306 318 l 300 330 q 233 229 300 288 q 115 62 115 150 q 127 5 115 50 l 138 5 q 256 157 138 63 q 502 269 264 199 q 547 218 547 269 l 558 218 q 569 275 569 269 l 569 280 q 524 471 524 397 l 524 487 q 541 560 524 534 q 631 650 593 598 l 625 661 q 586 650 597 650 q 581 655 586 655 q 592 818 586 806 l 597 818 q 608 779 597 779 l 625 795 q 659 890 640 890 q 749 947 734 947 q 754 913 749 922 q 861 846 861 893 l 861 806 l 872 806 q 900 907 900 863 q 939 997 900 954 q 1096 1221 1096 1110 q 1062 1294 1096 1262 "},"U":{"ha":568,"x_min":62,"x_max":618,"o":"m 386 1281 q 476 1016 476 1135 l 476 893 q 425 789 476 838 q 437 777 425 777 l 476 777 l 476 770 q 457 667 476 736 q 392 537 457 562 q 412 524 392 524 l 412 473 q 373 285 412 444 q 386 227 373 275 q 321 259 342 259 q 328 304 321 277 l 328 311 q 308 421 328 337 q 340 505 340 469 q 295 686 326 686 l 289 686 l 295 654 q 276 615 295 621 q 243 738 243 726 q 256 809 243 746 l 256 815 l 250 880 l 237 880 l 237 854 q 205 802 237 819 l 205 854 q 302 1074 205 962 l 302 1080 l 295 1080 q 62 777 201 1080 l 69 744 q 159 447 159 494 q 172 466 172 447 l 185 466 l 205 324 q 185 214 198 227 q 315 85 234 85 q 463 -71 463 85 l 463 -109 l 457 -142 l 463 -142 q 522 39 500 -142 q 483 240 522 77 q 522 531 504 482 q 618 770 618 717 l 618 783 q 600 880 600 844 l 600 912 l 606 958 l 600 958 l 573 932 l 522 1126 q 392 1281 522 1197 l 386 1281 "},"V":{"ha":520,"x_min":19,"x_max":574,"o":"m 337 1290 l 325 1284 q 431 1016 431 1120 l 431 866 q 374 766 431 840 l 374 760 l 387 760 q 425 772 404 760 l 425 747 q 356 654 425 710 q 393 623 368 632 l 343 536 q 356 448 343 523 q 294 243 356 347 l 288 243 q 300 292 300 266 l 300 298 l 294 336 q 300 367 300 347 l 275 436 l 300 492 q 294 698 294 640 q 275 753 294 753 l 269 753 l 269 729 q 237 648 269 657 l 231 648 q 218 766 218 722 l 218 772 q 237 847 237 831 l 237 866 l 225 866 q 181 823 225 831 l 175 823 q 256 1084 175 966 l 256 1090 l 250 1090 q 175 1028 243 1090 q 75 772 75 819 l 75 760 q 157 498 157 560 q 169 511 169 498 q 194 448 181 511 q 188 323 188 340 q 206 267 188 320 q 181 112 206 229 q 19 -125 141 -41 l 19 -132 l 26 -132 q 113 -100 41 -132 q 343 186 331 110 q 450 323 382 298 q 431 380 431 369 l 431 423 q 443 523 443 513 l 443 548 q 574 785 574 704 l 574 829 q 562 841 574 840 q 524 978 541 978 l 512 972 q 337 1290 512 1178 "},"W":{"ha":750,"x_min":11,"x_max":824,"o":"m 312 1290 l 312 1284 q 360 1206 332 1260 q 414 898 414 1114 q 354 795 414 850 q 366 784 354 784 l 385 784 l 402 795 l 402 753 q 342 687 389 719 l 342 682 q 366 657 357 657 q 324 561 366 624 q 342 465 342 473 q 336 458 342 458 q 281 283 324 356 l 276 283 l 276 290 l 288 319 q 264 452 288 427 l 264 482 q 288 536 276 500 q 276 699 288 557 q 281 736 276 704 q 270 778 270 766 l 258 778 l 258 766 q 222 675 258 683 q 203 795 210 711 q 222 850 222 840 l 222 886 l 210 886 q 168 838 210 856 l 168 868 q 245 1097 168 993 l 245 1103 q 179 1061 231 1103 q 71 790 71 876 l 71 784 l 137 585 l 137 543 l 143 530 l 161 543 l 168 543 q 185 476 168 532 l 174 362 q 191 314 191 326 l 191 290 q 161 127 191 235 q 11 -72 113 -13 l 11 -78 l 22 -78 q 312 187 121 -78 q 427 362 365 339 q 414 410 427 368 l 414 488 q 427 543 414 503 l 438 543 q 456 476 438 532 l 444 362 q 463 314 463 326 l 463 283 q 444 169 463 262 q 281 -72 395 -9 l 281 -78 l 294 -78 q 583 187 392 -78 q 698 362 635 339 q 686 410 698 368 l 686 416 q 728 615 686 615 q 824 820 824 753 l 824 844 q 782 995 806 857 l 776 995 l 764 989 q 709 1181 744 1131 q 583 1290 630 1290 l 583 1284 q 649 1163 622 1233 q 686 898 686 1093 q 625 790 686 859 l 625 784 l 655 784 l 673 795 l 673 753 q 607 682 665 726 q 637 657 610 669 q 595 561 637 625 q 613 465 613 471 q 553 283 587 347 l 547 283 l 547 290 l 559 319 q 535 452 559 427 l 535 482 q 559 543 549 499 q 547 741 547 678 l 547 747 l 541 778 q 553 838 553 778 l 553 844 q 511 995 535 857 l 505 995 l 492 989 q 438 1181 473 1131 q 312 1290 359 1290 "},"X":{"ha":926,"x_min":40,"x_max":1109,"o":"m 1063 1284 l 971 1238 q 735 1061 871 1238 q 597 1022 612 1040 l 526 1022 l 519 1055 l 506 1055 l 506 1002 q 558 904 558 921 l 558 865 q 492 741 492 755 q 388 839 427 741 q 355 806 360 806 q 270 963 335 819 q 184 1107 184 983 l 184 1120 q 191 1232 184 1155 l 178 1232 l 145 1075 q 165 977 165 986 q 197 845 197 882 q 178 734 197 819 l 178 721 q 211 668 211 682 l 224 668 l 224 675 l 211 694 l 211 721 q 237 741 211 730 l 270 734 q 342 694 293 694 q 433 648 389 662 l 433 642 q 315 576 433 576 q 329 524 329 552 l 329 505 q 263 406 329 460 l 237 406 q 138 446 231 406 l 113 446 l 79 426 l 86 413 l 99 419 q 158 367 158 410 q 145 334 145 367 q 191 236 191 290 q 40 -39 191 79 l 40 -46 l 47 -46 q 119 -20 119 -37 q 263 190 180 -20 q 355 315 263 287 q 420 439 393 315 l 467 433 l 473 433 l 486 439 q 473 492 473 463 q 545 590 545 564 l 551 590 q 644 531 610 531 l 689 531 l 722 537 q 696 433 715 458 q 762 360 696 411 q 676 262 676 290 l 676 210 q 440 85 551 85 l 440 72 q 492 65 488 65 q 735 170 640 65 q 801 262 801 205 q 905 406 866 406 l 939 406 q 964 380 964 390 l 977 387 q 939 465 977 439 q 833 557 833 465 l 833 570 q 846 642 846 634 l 846 688 l 833 688 q 748 629 833 650 l 722 629 q 604 714 658 660 l 610 747 q 703 891 703 806 q 689 963 689 955 q 880 1048 860 1030 q 1109 1272 880 1187 q 1095 1284 1109 1283 l 1063 1284 "},"Y":{"ha":615,"x_min":39,"x_max":681,"o":"m 456 1297 l 456 1292 q 558 1132 558 1209 q 478 918 538 1054 l 467 918 q 408 1014 467 945 l 397 1008 q 419 912 419 977 q 397 869 419 892 q 403 848 397 857 q 366 747 366 796 q 317 762 317 747 q 184 897 184 821 q 195 982 184 934 l 189 982 l 173 971 l 168 971 q 195 1078 195 1039 l 195 1088 q 130 1217 195 1152 l 152 1142 q 141 1046 152 1120 q 56 949 56 968 l 61 923 q 39 848 61 878 l 157 720 q 307 613 307 663 l 301 602 q 216 463 301 564 q 184 308 206 441 q 216 243 199 265 q 195 195 216 224 l 195 185 q 210 121 195 172 q 397 -40 300 -40 l 397 -29 q 376 -18 376 -29 q 307 147 315 -18 l 307 191 q 360 260 307 250 l 355 287 l 355 292 l 387 302 l 387 308 q 355 393 387 316 q 382 420 367 420 q 419 372 411 420 l 430 372 l 430 388 l 387 527 l 387 538 q 451 656 406 618 q 569 758 510 656 q 627 859 627 799 l 623 859 q 590 838 595 838 l 585 838 l 585 853 q 590 875 585 865 q 681 1073 645 939 q 644 1132 644 1116 q 456 1297 551 1260 m 339 490 q 349 500 339 499 l 355 500 l 355 490 q 344 479 355 479 l 339 479 l 339 490 "},"Z":{"ha":1140,"x_min":56,"x_max":1285,"o":"m 191 1282 q 77 971 77 1186 q 317 808 305 808 q 374 674 346 674 q 480 851 374 791 q 551 816 507 851 l 557 816 q 579 837 579 826 q 642 808 611 810 q 720 816 659 808 l 734 816 l 734 808 l 614 745 q 501 576 565 620 q 402 399 469 480 q 317 363 326 374 l 332 342 l 290 300 q 56 10 56 205 l 56 3 l 71 3 q 240 194 71 60 q 424 243 298 228 l 445 166 q 509 180 490 180 l 557 180 l 593 173 q 614 187 593 180 q 727 328 655 328 q 932 279 860 307 l 939 279 q 1017 434 939 323 q 1200 526 1098 505 l 1186 576 l 1186 625 q 1285 922 1285 826 l 1285 978 l 1271 978 q 1229 879 1271 962 q 1045 696 1112 696 q 932 547 967 570 q 798 441 922 547 q 557 357 779 441 q 614 519 614 503 q 762 709 762 673 q 1038 1006 1006 870 l 1038 1021 q 826 893 925 893 l 798 893 l 741 943 q 664 907 708 907 l 629 907 q 515 1027 515 945 l 501 1027 q 437 957 473 957 q 317 1077 349 1063 l 304 1077 q 325 999 325 1022 l 325 992 q 311 936 311 943 l 304 936 q 155 1126 247 962 q 197 1275 155 1208 l 197 1282 l 191 1282 "},"[":{"ha":514,"x_min":0,"x_max":0,"o":""},"\\":{"ha":386,"x_min":0,"x_max":0,"o":""},"]":{"ha":514,"x_min":0,"x_max":0,"o":""},"^":{"ha":688,"x_min":0,"x_max":0,"o":""},"_":{"ha":694,"x_min":0,"x_max":694,"o":"m 0 -68 l 0 -109 l 694 -109 l 694 -68 l 0 -68 "},"`":{"ha":694,"x_min":144,"x_max":456,"o":"m 456 732 l 259 932 q 221 964 235 956 q 194 972 208 972 q 158 959 172 972 q 144 924 144 945 q 154 896 144 909 q 186 869 165 882 l 410 732 l 456 732 "},"a":{"ha":625,"x_min":0,"x_max":0,"o":""},"b":{"ha":675,"x_min":0,"x_max":0,"o":""},"c":{"ha":614,"x_min":0,"x_max":0,"o":""},"d":{"ha":705,"x_min":0,"x_max":0,"o":""},"e":{"ha":616,"x_min":0,"x_max":0,"o":""},"f":{"ha":379,"x_min":0,"x_max":0,"o":""},"g":{"ha":610,"x_min":0,"x_max":0,"o":""},"h":{"ha":749,"x_min":0,"x_max":0,"o":""},"i":{"ha":349,"x_min":0,"x_max":0,"o":""},"j":{"ha":346,"x_min":0,"x_max":0,"o":""},"k":{"ha":696,"x_min":0,"x_max":0,"o":""},"l":{"ha":354,"x_min":0,"x_max":0,"o":""},"m":{"ha":1064,"x_min":0,"x_max":0,"o":""},"n":{"ha":751,"x_min":0,"x_max":0,"o":""},"o":{"ha":685,"x_min":0,"x_max":0,"o":""},"p":{"ha":685,"x_min":0,"x_max":0,"o":""},"q":{"ha":694,"x_min":0,"x_max":0,"o":""},"r":{"ha":469,"x_min":0,"x_max":0,"o":""},"s":{"ha":476,"x_min":0,"x_max":0,"o":""},"t":{"ha":457,"x_min":0,"x_max":0,"o":""},"u":{"ha":718,"x_min":0,"x_max":0,"o":""},"v":{"ha":673,"x_min":0,"x_max":0,"o":""},"w":{"ha":960,"x_min":0,"x_max":0,"o":""},"x":{"ha":685,"x_min":0,"x_max":0,"o":""},"y":{"ha":589,"x_min":0,"x_max":0,"o":""},"z":{"ha":493,"x_min":0,"x_max":0,"o":""},"{":{"ha":688,"x_min":163,"x_max":600,"o":"m 163 473 l 163 433 q 314 385 279 429 q 349 295 349 340 l 349 -22 q 401 -118 349 -73 q 526 -164 453 -164 l 600 -164 l 600 -130 l 538 -130 q 466 -107 497 -130 q 434 -45 435 -85 l 435 294 q 393 401 435 350 q 296 452 352 452 l 296 454 q 393 506 352 454 q 434 613 434 557 l 434 952 q 466 1014 435 991 q 538 1037 497 1037 l 600 1037 l 600 1071 l 526 1071 q 401 1025 453 1071 q 349 929 349 979 l 349 612 q 314 522 349 566 q 163 473 279 477 "},"|":{"ha":688,"x_min":290,"x_max":398,"o":"m 290 1069 l 290 -283 l 398 -283 l 398 1069 l 290 1069 "},"}":{"ha":688,"x_min":88,"x_max":525,"o":"m 525 433 l 525 473 q 374 522 408 477 q 339 612 339 566 l 339 929 q 287 1025 339 979 q 161 1071 235 1071 l 88 1071 l 88 1037 l 149 1037 q 222 1014 191 1037 q 254 952 253 991 l 254 613 q 295 506 254 557 q 392 454 336 454 l 392 452 q 294 401 336 452 q 253 294 253 350 l 254 -45 q 222 -107 253 -85 q 149 -130 191 -130 l 88 -130 l 88 -164 l 161 -164 q 287 -118 235 -164 q 339 -22 338 -73 l 339 295 q 374 385 339 340 q 525 433 408 429 "},"~":{"ha":688,"x_min":64,"x_max":626,"o":"m 626 595 q 538 519 576 538 q 465 500 500 500 q 348 534 427 500 q 224 568 268 568 q 147 550 187 568 q 64 483 107 532 l 64 377 q 152 453 113 434 q 224 472 190 472 q 344 439 264 472 q 465 406 424 406 q 543 424 503 406 q 626 490 583 441 l 626 595 "},"":{"ha":456,"x_min":0,"x_max":0,"o":""},"":{"ha":772,"x_min":0,"x_max":0,"o":""},"":{"ha":688,"x_min":52,"x_max":635,"o":"m 507 913 q 559 844 556 886 l 599 844 l 599 954 q 524 977 599 967 q 398 986 449 986 l 395 986 q 188 904 271 986 q 104 669 104 822 q 143 497 104 594 l 52 497 l 52 456 l 161 456 q 182 414 170 436 q 205 317 205 370 q 78 34 205 195 l 77 0 l 565 0 l 635 157 l 602 157 q 473 68 562 68 l 201 68 q 311 322 311 213 q 287 416 311 373 q 266 456 275 436 l 492 456 l 492 497 l 248 497 q 212 682 212 591 q 212 703 212 692 q 269 866 212 803 q 397 935 330 935 l 399 935 q 507 913 458 935 "},"":{"ha":688,"x_min":83,"x_max":604,"o":"m 237 380 q 199 448 210 408 q 193 486 193 467 q 199 526 193 506 q 237 593 211 566 q 304 631 264 619 q 343 637 323 637 q 382 631 363 637 q 450 593 422 620 q 489 526 477 565 q 495 486 495 506 q 489 447 495 467 q 450 380 477 408 q 383 341 422 353 q 344 336 363 336 q 304 341 324 336 q 237 380 265 353 m 163 612 q 131 545 142 583 q 122 486 122 516 q 130 429 122 458 q 163 359 141 391 l 83 280 l 137 225 l 217 305 q 286 273 248 283 q 344 264 315 264 q 401 273 373 264 q 470 305 439 283 l 550 225 l 604 280 l 525 359 q 557 429 546 391 q 566 486 566 458 q 557 544 566 515 q 525 613 546 582 l 604 692 l 550 747 l 470 667 q 401 700 439 688 q 345 708 372 708 q 284 699 314 708 q 217 667 247 688 l 137 747 l 83 692 l 163 612 "},"":{"ha":856,"x_min":5,"x_max":864,"o":"m 371 153 q 366 83 371 106 q 350 52 361 60 q 288 30 338 41 q 271 26 277 28 q 245 18 251 22 q 240 5 240 14 q 246 -5 240 -3 q 273 -8 252 -8 q 370 -5 290 -8 q 511 -3 450 -3 q 555 -5 532 -3 q 579 -8 578 -8 q 596 -3 589 -8 q 603 11 603 3 q 550 32 603 31 q 477 45 498 33 q 464 75 467 50 q 460 176 460 99 l 458 322 q 459 342 458 329 q 460 363 460 355 l 819 363 q 834 368 829 363 q 839 382 839 372 q 834 394 839 390 q 817 397 829 397 l 470 397 q 506 438 471 400 q 571 514 540 475 l 819 514 q 835 518 831 514 q 839 532 839 522 q 833 543 839 539 q 817 547 827 547 l 597 547 l 712 687 q 720 697 715 691 q 820 777 777 766 q 838 780 826 778 q 864 803 864 784 q 858 811 863 808 q 846 814 853 814 q 821 813 844 814 q 777 812 797 812 l 682 812 q 609 817 647 812 q 599 818 601 818 q 582 813 587 818 q 576 798 576 808 q 608 781 576 783 q 636 778 626 779 q 661 768 654 774 q 668 750 668 762 q 665 733 668 743 q 656 715 661 724 l 468 447 q 458 437 463 440 q 447 433 453 433 q 399 481 427 433 q 376 517 385 504 l 269 667 q 238 719 249 696 q 227 754 227 742 q 236 771 227 765 q 261 778 245 778 q 274 777 265 778 q 286 775 282 775 q 312 779 302 775 q 322 789 322 783 q 317 807 322 802 q 289 811 311 811 l 229 811 q 118 817 183 811 q 35 822 53 822 q 13 816 20 822 q 5 798 5 810 q 9 790 5 793 q 18 786 14 786 q 172 652 83 786 q 245 547 216 586 l 37 547 q 22 544 26 547 q 18 530 18 540 q 23 518 18 522 q 39 514 27 514 l 272 514 l 354 397 l 37 397 q 23 393 27 397 q 18 380 18 389 q 23 367 18 372 q 37 363 28 363 l 366 362 q 369 340 368 351 q 370 317 370 330 l 371 153 "},"":{"ha":688,"x_min":290,"x_max":398,"o":"m 290 252 l 290 -283 l 398 -283 l 398 252 l 290 252 m 290 1070 l 290 535 l 398 535 l 398 1070 l 290 1070 "},"":{"ha":688,"x_min":115,"x_max":572,"o":"m 370 218 q 201 387 201 304 q 233 467 201 437 q 318 497 265 497 q 404 477 363 497 q 480 391 465 433 q 483 373 482 382 l 484 373 q 485 366 485 370 q 435 254 485 298 q 370 218 408 229 m 316 -235 q 218 -201 264 -231 q 163 -111 167 -166 l 129 -111 l 129 -243 q 195 -271 129 -260 q 305 -282 260 -282 l 307 -282 q 316 -281 312 -282 l 316 -282 q 504 -211 420 -280 q 572 -19 572 -135 q 535 108 572 56 q 431 188 504 150 q 498 231 466 205 q 566 422 566 307 q 529 550 566 498 q 390 647 491 602 q 195 829 195 740 q 227 909 195 879 q 312 939 259 939 l 322 939 q 423 905 376 937 q 477 815 474 870 l 512 815 l 512 947 q 446 975 512 964 q 336 986 380 986 l 334 986 q 322 985 328 986 q 176 927 231 981 q 115 766 115 867 q 151 646 115 696 q 270 553 186 597 l 297 541 q 182 485 227 529 q 121 324 121 425 q 157 204 121 254 q 276 111 193 155 q 490 -76 490 9 q 441 -188 490 -144 q 316 -235 393 -231 "},"":{"ha":694,"x_min":142,"x_max":536,"o":"m 151 874 q 142 857 142 865 q 148 841 142 849 l 199 783 q 216 774 207 774 q 233 786 222 774 l 280 837 q 288 855 288 846 q 281 872 288 863 l 235 922 q 216 931 224 931 q 199 923 208 931 l 151 874 m 399 874 q 389 857 389 865 q 395 842 389 849 l 447 783 q 464 774 454 774 q 481 786 469 774 l 528 838 q 536 855 536 846 q 529 872 536 863 l 482 922 q 464 931 471 931 q 447 923 456 931 l 399 874 "},"":{"ha":1135,"x_min":68,"x_max":1067,"o":"m 570 987 q 375 949 468 987 q 214 840 283 911 q 105 679 143 770 q 68 487 68 587 q 105 295 68 386 q 215 134 143 205 q 376 25 287 63 q 565 -12 466 -12 q 757 25 666 -12 q 919 133 848 62 q 1029 296 991 204 q 1067 487 1067 387 q 1029 679 1067 586 q 922 840 991 772 q 760 949 851 911 q 570 987 668 987 m 242 812 q 391 912 307 877 q 569 947 476 947 q 744 912 660 947 q 893 812 828 877 q 991 663 956 748 q 1027 487 1027 578 q 991 312 1027 395 q 890 161 956 228 q 742 63 825 97 q 566 28 659 28 q 392 63 474 28 q 243 163 310 98 q 143 311 178 229 q 109 487 109 394 q 143 663 109 579 q 242 812 178 747 m 587 151 q 751 179 686 151 q 817 237 817 206 l 817 305 l 781 305 q 733 220 781 258 q 602 182 686 182 q 489 210 538 183 q 388 313 427 243 q 340 465 348 383 q 339 499 339 482 q 361 624 339 563 q 444 744 389 701 q 557 792 498 787 l 567 792 q 667 774 618 792 q 755 690 720 754 l 785 690 l 736 825 l 708 825 q 690 804 703 804 q 684 805 688 804 q 633 819 658 814 q 582 823 608 823 q 410 778 492 823 q 282 653 327 733 q 238 488 238 573 q 281 323 238 402 q 408 197 325 243 q 587 151 490 151 "},"":{"ha":439,"x_min":0,"x_max":0,"o":""},"":{"ha":640,"x_min":118,"x_max":572,"o":"m 118 325 l 350 119 l 359 119 l 359 144 l 220 325 l 359 505 l 359 530 l 350 530 l 118 325 m 330 325 l 562 119 l 572 119 l 572 144 l 433 325 l 572 505 l 572 530 l 562 530 l 330 325 "},"":{"ha":688,"x_min":59,"x_max":629,"o":"m 59 520 l 59 452 l 562 452 l 562 186 l 628 186 l 629 187 l 629 520 l 59 520 "},"":{"ha":1135,"x_min":68,"x_max":1067,"o":"m 509 745 l 572 745 q 615 733 593 745 q 654 681 637 720 q 673 597 670 642 q 673 578 673 587 q 665 509 673 543 q 633 443 654 466 q 591 416 612 419 l 587 416 q 549 431 569 416 q 511 486 527 448 l 509 492 l 509 745 m 667 391 q 745 482 723 433 q 766 584 766 531 q 744 687 766 637 q 682 764 722 736 q 597 793 640 792 l 355 793 l 355 745 l 385 745 q 410 663 410 745 l 410 298 q 385 216 410 216 l 355 216 l 355 182 l 570 182 l 570 216 l 534 216 q 509 298 509 216 l 509 406 q 566 378 538 378 l 617 309 q 664 231 664 251 q 644 216 664 216 l 613 216 l 613 182 l 848 182 l 848 216 l 825 216 q 723 312 791 216 l 667 391 m 570 987 q 375 949 468 987 q 214 840 283 911 q 105 679 143 770 q 68 487 68 587 q 105 295 68 386 q 215 134 143 205 q 376 25 287 63 q 565 -12 466 -12 q 757 25 666 -12 q 919 133 848 62 q 1029 296 991 204 q 1067 487 1067 387 q 1029 679 1067 586 q 922 840 991 772 q 760 949 851 911 q 570 987 668 987 m 242 812 q 391 912 307 877 q 569 947 476 947 q 744 912 660 947 q 893 812 828 877 q 991 663 956 748 q 1027 487 1027 578 q 991 312 1027 395 q 890 161 956 228 q 742 63 825 97 q 566 28 659 28 q 392 63 474 28 q 243 163 310 98 q 143 311 178 229 q 109 487 109 394 q 143 663 109 579 q 242 812 178 747 "},"":{"ha":454,"x_min":0,"x_max":0,"o":""},"":{"ha":457,"x_min":41,"x_max":418,"o":"m 230 930 q 329 889 288 930 q 370 789 370 848 q 330 689 370 730 q 230 648 289 648 q 130 689 171 648 q 88 789 88 730 q 130 889 88 848 q 230 930 172 930 m 230 978 q 96 923 151 978 q 41 789 41 868 q 95 656 41 711 q 229 601 149 601 q 362 656 307 601 q 418 789 418 712 q 363 923 418 867 q 230 978 308 978 "},"":{"ha":688,"x_min":0,"x_max":0,"o":""},"":{"ha":688,"x_min":0,"x_max":0,"o":""},"":{"ha":688,"x_min":0,"x_max":0,"o":""},"":{"ha":694,"x_min":214,"x_max":527,"o":"m 412 932 l 214 731 l 261 731 l 485 869 q 516 896 506 882 q 527 924 527 909 q 513 959 527 945 q 477 972 499 972 q 449 964 463 972 q 412 932 435 956 "},"":{"ha":800,"x_min":0,"x_max":0,"o":""},"":{"ha":694,"x_min":63,"x_max":630,"o":"m 630 973 l 330 973 q 136 908 209 973 q 63 736 63 843 q 132 570 63 634 q 319 500 201 506 l 319 0 l 376 0 l 376 926 l 488 926 l 488 0 l 544 0 l 544 926 l 630 926 l 630 973 "},"":{"ha":345,"x_min":87,"x_max":257,"o":"m 98 502 q 87 481 87 491 q 94 463 87 472 l 154 395 q 174 385 163 385 q 193 399 180 385 l 248 458 q 257 479 257 469 q 249 499 257 488 l 195 557 q 174 568 182 568 q 154 559 164 568 l 98 502 "},"":{"ha":694,"x_min":244,"x_max":521,"o":"m 244 -197 l 244 -262 q 372 -283 298 -283 q 481 -253 441 -283 q 521 -172 521 -223 q 488 -95 521 -122 q 397 -67 456 -67 q 355 -71 377 -68 l 380 0 l 338 0 l 305 -119 q 328 -118 317 -118 q 397 -129 370 -118 q 431 -172 431 -142 q 411 -217 431 -203 q 347 -232 392 -232 q 244 -197 302 -232 "},"":{"ha":688,"x_min":0,"x_max":0,"o":""},"":{"ha":487,"x_min":0,"x_max":0,"o":""},"":{"ha":640,"x_min":68,"x_max":522,"o":"m 78 119 l 310 325 l 78 530 l 68 530 l 68 505 l 208 325 l 68 144 l 68 119 l 78 119 m 290 119 l 522 325 l 290 530 l 281 530 l 281 505 l 420 325 l 281 144 l 281 119 l 290 119 "},"":{"ha":1158,"x_min":0,"x_max":0,"o":""},"":{"ha":1332,"x_min":0,"x_max":0,"o":""},"":{"ha":1158,"x_min":0,"x_max":0,"o":""},"":{"ha":507,"x_min":0,"x_max":0,"o":""},"":{"ha":1044,"x_min":0,"x_max":0,"o":""},"":{"ha":1044,"x_min":0,"x_max":0,"o":""},"":{"ha":1044,"x_min":0,"x_max":0,"o":""},"":{"ha":1044,"x_min":0,"x_max":0,"o":""},"":{"ha":1044,"x_min":0,"x_max":0,"o":""},"":{"ha":1044,"x_min":0,"x_max":0,"o":""},"":{"ha":1436,"x_min":0,"x_max":0,"o":""},"":{"ha":949,"x_min":0,"x_max":0,"o":""},"":{"ha":781,"x_min":0,"x_max":0,"o":""},"":{"ha":781,"x_min":0,"x_max":0,"o":""},"":{"ha":781,"x_min":0,"x_max":0,"o":""},"":{"ha":781,"x_min":0,"x_max":0,"o":""},"":{"ha":446,"x_min":0,"x_max":0,"o":""},"":{"ha":446,"x_min":0,"x_max":0,"o":""},"":{"ha":446,"x_min":0,"x_max":0,"o":""},"":{"ha":446,"x_min":0,"x_max":0,"o":""},"":{"ha":1029,"x_min":0,"x_max":0,"o":""},"":{"ha":1054,"x_min":0,"x_max":0,"o":""},"":{"ha":1095,"x_min":0,"x_max":0,"o":""},"":{"ha":1095,"x_min":0,"x_max":0,"o":""},"":{"ha":1095,"x_min":0,"x_max":0,"o":""},"":{"ha":1095,"x_min":0,"x_max":0,"o":""},"":{"ha":1095,"x_min":0,"x_max":0,"o":""},"":{"ha":688,"x_min":109,"x_max":578,"o":"m 344 419 l 511 252 l 578 319 l 411 486 l 578 654 l 512 721 l 344 553 l 176 721 l 109 654 l 277 486 l 109 319 l 176 252 l 344 419 "},"":{"ha":1095,"x_min":0,"x_max":0,"o":""},"":{"ha":1018,"x_min":0,"x_max":0,"o":""},"":{"ha":1018,"x_min":0,"x_max":0,"o":""},"":{"ha":1018,"x_min":0,"x_max":0,"o":""},"":{"ha":1018,"x_min":0,"x_max":0,"o":""},"":{"ha":836,"x_min":0,"x_max":0,"o":""},"":{"ha":760,"x_min":0,"x_max":0,"o":""},"":{"ha":848,"x_min":0,"x_max":0,"o":""},"":{"ha":625,"x_min":0,"x_max":0,"o":""},"":{"ha":625,"x_min":0,"x_max":0,"o":""},"":{"ha":625,"x_min":0,"x_max":0,"o":""},"":{"ha":625,"x_min":0,"x_max":0,"o":""},"":{"ha":625,"x_min":0,"x_max":0,"o":""},"":{"ha":625,"x_min":0,"x_max":0,"o":""},"":{"ha":986,"x_min":0,"x_max":0,"o":""},"":{"ha":614,"x_min":0,"x_max":0,"o":""},"":{"ha":616,"x_min":0,"x_max":0,"o":""},"":{"ha":616,"x_min":0,"x_max":0,"o":""},"":{"ha":616,"x_min":0,"x_max":0,"o":""},"":{"ha":616,"x_min":0,"x_max":0,"o":""},"":{"ha":349,"x_min":0,"x_max":0,"o":""},"":{"ha":349,"x_min":0,"x_max":0,"o":""},"":{"ha":349,"x_min":0,"x_max":0,"o":""},"":{"ha":349,"x_min":0,"x_max":0,"o":""},"":{"ha":772,"x_min":0,"x_max":0,"o":""},"":{"ha":751,"x_min":0,"x_max":0,"o":""},"":{"ha":685,"x_min":0,"x_max":0,"o":""},"":{"ha":685,"x_min":0,"x_max":0,"o":""},"":{"ha":685,"x_min":0,"x_max":0,"o":""},"":{"ha":685,"x_min":0,"x_max":0,"o":""},"":{"ha":685,"x_min":0,"x_max":0,"o":""},"":{"ha":688,"x_min":59,"x_max":629,"o":"m 59 439 l 629 439 l 629 533 l 628 534 l 59 534 l 59 439 m 270 277 q 259 256 259 266 q 266 238 259 247 l 326 170 q 345 160 334 160 q 365 174 351 160 l 419 233 q 429 254 429 244 q 420 274 429 263 l 366 332 q 345 343 354 343 q 326 334 336 343 l 270 277 m 270 747 q 259 726 259 736 q 266 708 259 717 l 326 640 q 345 630 334 630 q 365 644 351 630 l 419 703 q 429 724 429 714 q 420 744 429 733 l 366 802 q 345 813 354 813 q 326 804 336 813 l 270 747 "},"":{"ha":685,"x_min":0,"x_max":0,"o":""},"":{"ha":718,"x_min":0,"x_max":0,"o":""},"":{"ha":718,"x_min":0,"x_max":0,"o":""},"":{"ha":718,"x_min":0,"x_max":0,"o":""},"":{"ha":718,"x_min":0,"x_max":0,"o":""},"":{"ha":589,"x_min":0,"x_max":0,"o":""},"":{"ha":685,"x_min":0,"x_max":0,"o":""},"":{"ha":589,"x_min":0,"x_max":0,"o":""},"":{"ha":349,"x_min":13,"x_max":321,"o":"m 222 151 l 222 650 l 190 650 q 13 526 163 573 l 13 496 l 45 496 q 121 444 121 496 l 121 151 q 53 34 121 34 l 22 34 l 22 0 l 321 0 l 321 34 l 290 34 q 222 151 222 34 "},"":{"ha":694,"x_min":150,"x_max":545,"o":"m 150 732 l 189 732 l 347 878 l 505 732 l 545 732 l 387 972 l 307 972 l 150 732 "},"":{"ha":694,"x_min":150,"x_max":545,"o":"m 150 972 l 307 731 l 387 731 l 545 972 l 505 972 l 347 827 l 189 972 l 150 972 "},"":{"ha":694,"x_min":172,"x_max":522,"o":"m 172 810 l 522 810 l 522 895 l 172 895 l 172 810 "},"":{"ha":694,"x_min":149,"x_max":545,"o":"m 149 915 q 214 779 163 825 q 347 732 264 732 q 481 778 431 732 q 545 915 531 825 l 510 915 q 460 842 498 865 q 347 819 421 819 q 234 842 273 819 q 183 915 195 865 l 149 915 "},"":{"ha":694,"x_min":277,"x_max":422,"o":"m 286 874 q 279 865 281 869 q 277 857 277 861 q 278 847 277 851 q 282 841 279 844 l 333 782 q 340 776 336 778 q 351 774 345 774 q 356 776 353 774 q 367 785 359 778 l 415 837 q 420 845 419 841 q 422 855 422 849 q 421 865 422 861 q 416 871 420 869 l 368 923 q 360 929 364 927 q 351 931 355 931 q 342 929 347 931 q 333 923 337 927 l 286 874 "},"":{"ha":694,"x_min":227,"x_max":468,"o":"m 279 852 q 299 900 279 880 q 347 920 319 920 q 394 900 374 920 q 414 852 414 880 q 395 804 414 824 q 347 785 375 785 q 298 804 318 785 q 279 852 279 824 m 227 852 q 262 767 227 802 q 347 732 296 732 q 433 767 398 732 q 468 852 468 802 q 433 938 468 903 q 347 972 398 972 q 262 938 296 972 q 227 852 227 903 "},"":{"ha":694,"x_min":250,"x_max":500,"o":"m 434 0 l 401 0 q 291 -92 332 -37 q 250 -198 250 -146 q 280 -259 250 -235 q 357 -283 310 -283 q 438 -260 401 -283 q 500 -195 475 -237 l 481 -184 q 447 -217 467 -206 q 400 -227 427 -227 q 351 -208 369 -227 q 332 -157 332 -189 q 359 -81 332 -120 q 434 0 386 -42 "},"":{"ha":694,"x_min":159,"x_max":548,"o":"m 548 937 l 511 937 q 487 892 502 906 q 448 879 472 879 l 445 879 q 369 895 412 879 q 292 911 323 910 q 205 875 238 911 q 159 768 172 840 l 195 768 q 218 816 203 802 q 259 830 233 830 q 336 814 292 830 q 413 798 379 798 l 416 798 q 502 833 469 798 q 548 937 534 867 "},"":{"ha":694,"x_min":147,"x_max":547,"o":"m 147 732 l 186 732 l 326 876 q 346 903 339 890 q 353 927 353 916 q 340 959 353 945 q 307 972 326 972 q 276 960 290 972 q 245 917 261 947 l 147 732 m 340 732 l 380 732 l 519 876 q 539 903 532 890 q 547 927 547 916 q 533 959 547 945 q 500 972 519 972 q 469 960 484 972 q 438 917 454 947 l 340 732 "},"":{"ha":751,"x_min":38,"x_max":713,"o":"m 38 284 l 713 284 l 713 366 l 38 366 l 38 284 "},"":{"ha":1389,"x_min":0,"x_max":1389,"o":"m 0 284 l 1389 284 l 1389 366 l 0 366 l 0 284 "},"":{"ha":378,"x_min":126,"x_max":297,"o":"m 216 689 l 297 774 l 297 802 q 210 911 210 831 q 269 1040 219 1011 l 269 1069 q 174 990 222 1069 q 126 836 126 910 q 156 733 126 778 q 216 689 186 689 "},"":{"ha":378,"x_min":81,"x_max":252,"o":"m 161 1069 l 81 985 l 81 956 q 168 847 168 928 q 109 718 159 747 l 109 689 q 203 769 155 689 q 252 922 252 848 q 221 1025 252 981 q 161 1069 191 1069 "},"":{"ha":378,"x_min":81,"x_max":252,"o":"m 161 191 l 81 106 l 81 77 q 168 -32 168 49 q 109 -161 159 -132 l 109 -190 q 203 -110 155 -190 q 252 43 252 -31 q 221 146 252 102 q 161 191 191 191 "},"":{"ha":617,"x_min":126,"x_max":536,"o":"m 216 689 l 297 774 l 297 802 q 210 911 210 831 q 269 1040 219 1011 l 269 1069 q 174 990 222 1069 q 126 836 126 910 q 156 733 126 778 q 216 689 186 689 m 456 689 l 536 774 l 536 802 q 449 911 449 831 q 508 1040 458 1011 l 508 1069 q 414 990 462 1069 q 366 836 366 910 q 396 733 366 778 q 456 689 426 689 "},"":{"ha":617,"x_min":81,"x_max":491,"o":"m 161 1069 l 81 985 l 81 956 q 168 847 168 928 q 109 718 159 747 l 109 689 q 203 769 155 689 q 252 922 252 848 q 221 1025 252 981 q 161 1069 191 1069 m 401 1069 l 320 985 l 320 956 q 408 847 408 928 q 349 718 398 747 l 349 689 q 443 769 395 689 q 491 922 491 848 q 461 1025 491 981 q 401 1069 431 1069 "},"":{"ha":617,"x_min":81,"x_max":491,"o":"m 161 191 l 81 106 l 81 77 q 168 -32 168 49 q 109 -161 159 -132 l 109 -190 q 203 -110 155 -190 q 252 43 252 -31 q 221 146 252 102 q 161 191 191 191 m 401 191 l 320 106 l 320 77 q 408 -32 408 49 q 349 -161 398 -132 l 349 -190 q 443 -110 395 -190 q 491 43 491 -31 q 461 146 491 102 q 401 191 431 191 "},"":{"ha":688,"x_min":48,"x_max":640,"o":"m 330 693 q 208 730 266 699 q 115 768 137 768 q 67 743 85 768 q 48 679 48 718 q 68 614 48 638 q 121 589 88 589 q 209 628 140 589 q 330 665 264 659 q 254 477 323 546 q 332 -183 328 165 l 357 -183 q 433 477 361 165 q 359 665 364 546 q 480 627 422 658 q 572 589 551 589 q 622 615 603 589 q 640 679 640 640 q 620 744 640 720 q 566 768 600 768 q 479 730 547 768 q 359 693 424 699 q 396 814 365 757 q 433 907 433 886 q 408 956 433 937 q 344 975 382 975 q 279 955 303 975 q 254 901 254 935 q 293 814 254 882 q 330 693 324 759 "},"":{"ha":688,"x_min":47,"x_max":640,"o":"m 358 126 q 433 396 363 279 q 358 665 363 512 q 479 627 422 658 q 572 589 550 589 q 621 615 602 589 q 640 679 640 640 q 619 744 640 720 q 566 768 599 768 q 478 730 547 768 q 358 693 423 699 q 395 814 364 757 q 433 907 433 886 q 407 956 433 937 q 343 975 382 975 q 278 955 302 975 q 254 901 254 935 q 292 814 254 882 q 329 693 323 759 q 208 730 265 699 q 115 768 136 768 q 66 743 85 768 q 47 679 47 718 q 67 614 47 638 q 121 589 87 589 q 208 628 140 589 q 329 665 264 659 q 254 396 323 512 q 329 126 323 279 q 208 163 264 133 q 121 202 140 202 q 67 178 87 202 q 47 113 47 153 q 66 48 47 74 q 115 23 85 23 q 208 61 136 23 q 329 98 265 92 q 292 -22 323 33 q 254 -110 254 -91 q 278 -163 254 -143 q 343 -183 302 -183 q 407 -164 382 -183 q 433 -116 433 -146 q 395 -23 433 -94 q 358 98 364 35 q 478 62 423 93 q 566 23 547 23 q 619 47 599 23 q 640 113 640 72 q 621 177 640 151 q 572 202 602 202 q 479 165 550 202 q 358 126 422 134 "},"":{"ha":694,"x_min":146,"x_max":548,"o":"m 146 487 q 205 345 146 404 q 347 286 263 286 q 489 345 429 286 q 548 487 548 404 q 489 628 548 570 q 348 687 431 687 q 205 629 264 687 q 146 487 146 570 "},"":{"ha":1389,"x_min":87,"x_max":1183,"o":"m 98 113 q 87 92 87 102 q 94 75 87 83 l 154 6 q 174 -3 163 -3 q 193 10 180 -3 l 248 70 q 257 91 257 81 q 249 111 257 100 l 195 169 q 174 180 182 180 q 154 170 164 180 l 98 113 m 562 113 q 551 92 551 102 q 557 75 551 83 l 617 6 q 637 -3 626 -3 q 656 10 643 -3 l 711 70 q 720 91 720 81 q 712 111 720 100 l 658 169 q 637 180 646 180 q 617 170 627 180 l 562 113 m 1025 113 q 1014 92 1014 102 q 1021 75 1014 83 l 1080 6 q 1100 -3 1089 -3 q 1120 10 1106 -3 l 1174 70 q 1183 91 1183 81 q 1175 111 1183 100 l 1121 169 q 1100 180 1109 180 q 1080 170 1090 180 l 1025 113 "},"":{"ha":428,"x_min":118,"x_max":359,"o":"m 118 325 l 350 119 l 359 119 l 359 144 l 220 325 l 359 505 l 359 530 l 350 530 l 118 325 "},"":{"ha":428,"x_min":68,"x_max":310,"o":"m 78 119 l 310 325 l 78 530 l 68 530 l 68 505 l 208 325 l 68 144 l 68 119 l 78 119 "},"":{"ha":232,"x_min":-232,"x_max":463,"o":"m -232 -20 l -174 -20 l 463 971 l 406 971 l -232 -20 "},"":{"ha":688,"x_min":33,"x_max":723,"o":"m 168 242 l 168 193 q 98 34 168 34 l 33 34 l 33 0 l 412 0 l 412 34 l 347 34 q 277 193 277 34 l 277 242 l 409 242 l 409 283 l 277 283 l 277 473 l 522 473 q 590 431 590 473 l 590 391 l 624 391 l 624 623 l 590 623 l 590 583 q 522 541 590 541 l 277 541 l 277 779 q 347 939 277 939 l 561 939 q 690 816 650 939 l 723 816 l 653 972 l 33 972 l 33 939 l 98 939 q 168 779 168 939 l 168 283 l 36 283 l 36 242 l 168 242 "},"":{"ha":688,"x_min":52,"x_max":635,"o":"m 507 913 q 559 844 556 886 l 599 844 l 599 954 q 524 977 599 967 q 398 986 449 986 q 188 904 271 986 q 104 669 104 822 q 128 538 104 610 l 52 538 l 52 497 l 143 497 q 161 456 151 477 l 64 456 l 64 416 l 180 416 l 182 414 q 205 317 205 370 q 78 34 205 195 l 77 0 l 565 0 l 635 157 l 602 157 q 473 68 562 68 l 201 68 q 311 322 311 213 q 287 416 311 373 l 505 416 l 505 456 l 266 456 q 248 497 256 477 l 492 497 l 492 538 l 235 538 q 212 682 212 610 q 212 703 212 692 q 269 866 212 803 q 397 935 330 935 l 399 935 q 507 913 458 935 "},"":{"ha":1375,"x_min":33,"x_max":1334,"o":"m 277 939 l 409 939 q 423 939 416 939 q 499 916 461 939 q 573 818 544 887 q 606 669 602 748 q 607 637 607 654 q 592 516 607 575 q 533 396 573 441 q 447 345 493 351 q 434 345 441 345 q 355 374 394 345 q 282 478 310 409 q 277 490 279 484 l 277 939 m 1015 616 l 1014 615 q 964 484 964 566 q 994 385 964 426 q 1091 309 1023 345 q 1267 156 1267 225 q 1227 64 1267 100 q 1124 28 1187 28 l 1120 28 q 1034 58 1072 28 q 956 176 994 88 l 923 176 l 971 45 q 916 71 935 50 q 893 151 893 96 l 893 616 l 1015 616 m 705 617 l 792 617 l 792 151 l 793 151 q 832 32 798 71 q 949 -7 865 -7 q 989 -3 970 -7 q 1014 -1 1002 -1 q 1052 -5 1033 -1 q 1123 -13 1084 -13 q 1278 45 1208 -12 q 1334 202 1334 107 q 1303 306 1334 264 q 1190 386 1272 349 q 1030 535 1030 462 q 1056 601 1030 576 q 1126 625 1082 625 q 1216 597 1175 625 q 1261 524 1258 568 l 1289 524 l 1289 631 q 1235 654 1289 645 q 1145 663 1181 663 l 1143 663 q 1069 650 1097 663 l 893 650 l 893 890 l 859 890 q 713 650 859 650 l 706 650 q 671 810 705 734 q 574 930 636 888 q 452 972 514 971 l 33 972 l 33 939 l 98 939 q 168 779 168 939 l 168 193 q 98 34 168 34 l 33 34 l 33 0 l 412 0 l 412 34 l 347 34 q 277 193 277 34 l 277 400 q 318 366 296 380 q 448 322 380 322 q 576 365 515 322 q 672 486 638 408 q 705 617 700 549 "},"":{"ha":688,"x_min":-30,"x_max":724,"o":"m 95 252 q 247 66 149 133 q 467 0 345 0 q 648 38 577 1 q 724 124 724 77 l 724 221 l 691 221 q 641 96 691 157 q 467 34 593 36 q 321 81 390 35 q 190 241 240 134 q 134 443 145 336 l 576 443 l 587 484 l 130 484 q 129 524 129 504 l 598 524 l 610 565 l 131 565 q 157 708 136 637 q 264 893 192 825 q 417 970 336 962 q 440 972 429 972 q 509 961 475 972 l 509 959 q 564 937 534 952 q 657 817 624 907 l 684 817 l 627 1008 l 600 1008 q 576 977 590 977 q 566 981 571 977 q 510 1001 537 994 q 451 1006 480 1006 q 249 941 347 1006 q 96 755 151 876 q 44 565 54 663 l 5 565 l -7 524 l 41 524 q 41 503 41 514 l 41 484 l -18 484 l -30 443 l 43 443 q 95 252 53 344 "},"":{"ha":1540,"x_min":0,"x_max":0,"o":""},"":{"ha":1015,"x_min":0,"x_max":0,"o":""},"":{"ha":688,"x_min":52,"x_max":635,"o":"m 157 364 q 168 471 157 414 q 224 592 184 548 q 309 639 263 635 l 317 639 q 404 605 359 639 q 485 493 452 567 q 527 336 517 418 q 530 278 530 307 q 519 177 530 227 q 465 55 504 100 q 378 7 426 11 q 370 7 374 7 q 283 43 326 7 q 202 155 235 81 q 161 311 170 228 q 157 364 157 336 m 635 323 q 494 796 635 603 q 144 989 352 989 l 144 952 q 366 847 264 943 q 524 591 467 751 q 488 619 507 607 q 344 663 418 663 q 201 619 271 663 q 92 494 131 575 q 52 323 52 412 q 91 153 52 234 q 198 28 129 73 q 344 -17 268 -17 q 489 28 420 -17 q 597 153 559 73 q 635 323 635 234 "},"":{"ha":733,"x_min":4,"x_max":728,"o":"m 349 810 l 616 83 l 73 83 l 349 810 m 371 972 l 4 0 l 728 0 l 371 972 "},"":{"ha":1027,"x_min":33,"x_max":995,"o":"m 347 939 l 680 939 q 750 779 750 939 l 750 -90 q 680 -249 750 -249 l 615 -249 l 615 -283 l 995 -283 l 995 -249 l 929 -249 q 860 -90 860 -249 l 860 779 q 929 939 860 939 l 995 939 l 995 972 l 33 972 l 33 939 l 98 939 q 168 779 168 939 l 168 -90 q 98 -249 168 -249 l 33 -249 l 33 -283 l 412 -283 l 412 -249 l 347 -249 q 277 -90 277 -249 l 277 779 q 347 939 277 939 "},"":{"ha":818,"x_min":81,"x_max":776,"o":"m 718 372 l 286 939 l 614 939 q 743 815 703 939 l 776 815 l 706 972 l 81 972 l 81 939 q 153 900 123 939 l 603 317 l 153 -212 q 81 -248 123 -248 l 81 -282 l 706 -282 l 776 -125 l 743 -125 q 614 -248 703 -248 l 184 -248 l 718 372 "},"":{"ha":688,"x_min":59,"x_max":629,"o":"m 59 439 l 629 439 l 629 533 l 628 534 l 59 534 l 59 439 "},"":{"ha":688,"x_min":12,"x_max":715,"o":"m 123 0 l 666 1098 l 715 1098 l 715 1139 l 613 1139 l 119 142 l 62 267 l 12 243 l 123 0 "},"":{"ha":688,"x_min":45,"x_max":645,"o":"m 298 512 q 247 386 276 409 q 185 357 217 363 q 163 355 174 355 q 121 362 141 355 q 73 401 90 374 q 54 462 56 429 l 54 467 q 68 528 54 497 q 112 586 83 562 q 175 616 142 609 q 191 617 182 617 q 248 602 216 617 q 298 512 288 582 m 316 466 q 378 600 338 564 q 465 642 419 635 q 494 644 479 644 q 546 635 521 644 q 608 589 585 622 q 632 515 631 556 l 632 508 q 614 435 632 471 q 557 366 595 393 q 477 331 519 339 q 463 330 471 330 q 380 362 427 330 q 316 466 324 401 m 305 561 q 297 589 302 575 q 247 665 279 638 q 180 692 215 692 q 112 665 144 692 q 62 587 79 637 q 45 486 45 538 q 62 385 45 434 q 112 308 79 336 q 180 280 144 280 q 247 307 215 280 q 297 384 279 334 q 305 412 302 397 q 319 364 311 388 q 384 272 342 305 q 471 239 425 239 q 557 271 516 239 q 622 363 599 304 q 645 486 645 422 q 622 610 645 551 q 557 701 599 669 q 471 734 516 734 q 384 701 425 734 q 319 608 342 667 q 305 561 311 585 "},"":{"ha":451,"x_min":-49,"x_max":492,"o":"m -8 -191 q 151 -62 76 -191 q 239 222 226 66 l 289 743 q 322 989 292 884 q 401 1095 353 1095 q 444 1080 420 1095 q 467 1036 467 1065 l 492 1036 l 492 1144 q 451 1164 492 1164 q 292 1034 366 1164 q 201 743 219 904 l 195 701 l 148 203 q 121 -12 142 98 q 43 -121 98 -121 l 42 -121 q -1 -107 22 -121 q -24 -63 -24 -92 l -49 -63 l -49 -171 q -8 -191 -49 -191 "},"":{"ha":688,"x_min":64,"x_max":626,"o":"m 626 714 q 538 638 576 657 q 465 619 500 619 q 348 653 427 619 q 224 686 268 686 q 147 669 187 686 q 64 602 107 651 l 64 496 q 152 572 113 553 q 224 591 190 591 q 344 558 264 591 q 465 525 424 525 q 543 542 503 525 q 626 608 583 559 l 626 714 m 626 478 q 538 402 576 421 q 465 383 500 383 q 348 417 427 383 q 224 450 268 450 q 147 433 187 450 q 64 366 107 415 l 64 260 q 152 336 113 317 q 224 355 190 355 q 344 322 264 355 q 465 289 424 289 q 543 306 503 289 q 626 372 583 323 l 626 478 "},"":{"ha":688,"x_min":59,"x_max":629,"o":"m 629 728 l 629 842 l 59 513 l 59 457 l 629 131 l 629 244 l 205 485 l 629 728 m 59 1 l 629 1 l 629 95 l 628 96 l 59 96 l 59 1 "},"":{"ha":688,"x_min":59,"x_max":629,"o":"m 59 842 l 59 728 l 483 485 l 59 244 l 59 131 l 629 457 l 629 513 l 59 842 m 59 1 l 629 1 l 629 96 l 628 96 l 59 96 l 59 1 "},"":{"ha":728,"x_min":0,"x_max":0,"o":""},"":{"ha":733,"x_min":0,"x_max":0,"o":""}}}
